<?xml version="1.0" standalone="no"?>
<!DOCTYPE svg PUBLIC "-//W3C//DTD SVG 1.1//EN" "http://www.w3.org/Graphics/SVG/1.1/DTD/svg11.dtd" >
<svg xmlns="http://www.w3.org/2000/svg" xmlns:xlink="http://www.w3.org/1999/xlink" version="1.1">
<metadata></metadata>
<defs>
<font id="adelle_sansbold" horiz-adv-x="1167" >
<font-face units-per-em="2048" ascent="1546" descent="-502" />
<missing-glyph horiz-adv-x="356" />
<glyph unicode="&#xfb01;" horiz-adv-x="1267" d="M12 842v225h144v123q0 192 97.5 285.5t272.5 93.5q102 0 191 -29l-10 -225q-63 18 -113 18q-63 0 -96 -36t-33 -126v-104h686v-1067h-309v842h-377v-842h-309v842h-144zM811 1409q0 90 48 138t136 48q90 0 139.5 -48t49.5 -138q0 -89 -50 -138.5t-139 -49.5 q-88 0 -136 49.5t-48 138.5z" />
<glyph unicode="&#xfb02;" horiz-adv-x="1267" d="M12 842v225h144v123q0 192 97.5 285.5t272.5 93.5q67 0 130 -12.5t94 -26.5l-13 -217q-71 22 -133 22q-69 0 -104 -36.5t-35 -127.5v-104h254v-225h-254v-842h-309v842h-144zM842 0v1546h309v-1546h-309z" />
<glyph unicode="&#xfb03;" horiz-adv-x="1951" d="M12 842v225h144v123q0 192 97.5 285.5t272.5 93.5q67 0 130 -12.5t94 -26.5l-13 -215q-71 22 -133 22q-69 0 -104 -36t-35 -127v-107h377v123q0 192 97.5 285.5t272.5 93.5q102 0 191 -29l-10 -225q-63 18 -113 18q-63 0 -96 -36t-33 -126v-104h686v-1067h-309v842h-377 v-842h-309v842h-377v-842h-309v842h-144zM1497 1409q0 90 48 138t136 48q90 0 139.5 -48t49.5 -138q0 -89 -50 -138.5t-139 -49.5q-88 0 -136 49.5t-48 138.5z" />
<glyph unicode="&#xfb04;" horiz-adv-x="1951" d="M12 842v225h144v123q0 192 97.5 285.5t272.5 93.5q67 0 130 -12.5t94 -26.5l-13 -215q-71 22 -133 22q-69 0 -104 -36t-35 -127v-107h377v123q0 192 97.5 285.5t272.5 93.5q67 0 130 -12.5t94 -26.5l-13 -217q-71 22 -133 22q-69 0 -104 -36.5t-35 -127.5v-104h254v-225 h-254v-842h-309v842h-377v-842h-309v842h-144zM1528 0v1546h309v-1546h-309z" />
<glyph horiz-adv-x="0" />
<glyph horiz-adv-x="682" />
<glyph unicode=" "  horiz-adv-x="356" />
<glyph unicode="&#x09;" horiz-adv-x="356" />
<glyph unicode="&#xa0;" horiz-adv-x="356" />
<glyph unicode="!" horiz-adv-x="593" d="M115 139q0 80 46.5 123t137.5 43q90 0 136 -43t46 -123q0 -79 -46 -121.5t-136 -42.5q-184 0 -184 164zM131 1483h336l-39 -1080h-258z" />
<glyph unicode="&#x22;" horiz-adv-x="878" d="M102 952v531h277v-531h-277zM500 952v531h276v-531h-276z" />
<glyph unicode="#" horiz-adv-x="1243" d="M61 285l43 213h193l35 225h-205l43 215h192l41 276h213l-41 -276h177l41 276h213l-41 -276h206l-41 -215h-196l-35 -225h207l-41 -213h-197l-45 -285h-211l43 285h-178l-43 -285h-213l43 285h-203zM510 498h178l33 225h-176z" />
<glyph unicode="$" horiz-adv-x="1126" d="M29 406l270 51q10 -62 24.5 -101.5t42 -71.5t73 -46.5t112.5 -14.5q99 0 157 42t58 124q0 28 -8.5 51t-19.5 40t-34 33t-41 25.5t-52.5 21.5t-55 18t-61.5 17q-3 1 -4 1t-3 1t-4 1q-49 13 -85 24.5t-82 31.5t-78 41.5t-66 54t-55 71t-34 91t-13 114.5q0 164 98.5 270 t255.5 142v184h260v-182q72 -9 131 -34.5t107.5 -70t78 -116t35.5 -164.5l-274 -33q-14 101 -57 148t-140 47q-91 0 -136.5 -40t-45.5 -106q0 -87 63 -133.5t201 -83.5q53 -14 88 -25t83.5 -30.5t80.5 -40t67 -53t55.5 -70t34 -89.5t13.5 -114q0 -185 -110 -296t-289 -140 v-164h-262v164q-58 8 -106.5 24t-96 47.5t-82.5 75.5t-60 111t-34 152z" />
<glyph unicode="%" horiz-adv-x="1701" d="M41 1128q0 180 90 281.5t270 101.5q342 0 342 -356q0 -180 -91 -283.5t-267 -103.5q-94 0 -162.5 28t-107.5 79t-56.5 113.5t-17.5 139.5zM246 -27l897 1510h270l-895 -1510h-272zM276 1143q0 -102 27 -148.5t92 -46.5q63 0 90 47t27 152q0 95 -27 138.5t-90 43.5 q-62 0 -90.5 -46t-28.5 -140zM946 336q0 179 90 281t271 102q342 0 342 -357q0 -180 -91.5 -283.5t-267.5 -103.5q-94 0 -162.5 28t-107.5 79t-56.5 114t-17.5 140zM1182 350q0 -102 26.5 -148t91.5 -46q63 0 90 46.5t27 151.5q0 96 -27 139.5t-90 43.5q-62 0 -90 -46.5 t-28 -140.5z" />
<glyph unicode="&#x26;" horiz-adv-x="1521" d="M76 397q0 147 73 247t226 165q-72 121 -72 248q0 174 124.5 276.5t317.5 102.5q72 0 134 -15.5t114.5 -48.5t82.5 -91.5t30 -137.5q0 -50 -13.5 -94.5t-47 -94.5t-101.5 -98t-166 -90l-28 -12q115 -160 270 -328q59 113 59 307h273q7 -264 -133 -454q71 -46 147 -46 q34 0 78 13l33 -234q-73 -26 -170 -30q-155 0 -312 98q-141 -105 -401 -105q-246 0 -382 118.5t-136 303.5zM391 430q0 -100 66.5 -164.5t187.5 -64.5q91 0 154 32q-152 140 -322 388q-86 -71 -86 -191zM604 1108q0 -80 55 -184q92 45 123 70q66 53 66 132q0 49 -30 79 t-85 30q-56 0 -92.5 -33.5t-36.5 -93.5z" />
<glyph unicode="'" horiz-adv-x="481" d="M102 952v531h277v-531h-277z" />
<glyph unicode="(" horiz-adv-x="743" d="M86 573q0 255 87 477t239 433h319q-73 -107 -125.5 -201t-98 -206t-68.5 -236.5t-23 -259.5q0 -136 23 -261.5t69 -239t91.5 -199.5t111.5 -193h-324q-301 431 -301 886z" />
<glyph unicode=")" horiz-adv-x="743" d="M-20 -313q73 107 125.5 201t98 206t68.5 236.5t23 259.5q0 136 -23 261.5t-69 239t-91.5 199.5t-111.5 193h324q301 -431 301 -887q0 -255 -87 -476.5t-239 -432.5h-319z" />
<glyph unicode="*" horiz-adv-x="976" d="M86 1202l45 148l236 -58l41 254h147l37 -250l231 56l43 -148l-219 -110l148 -222l-117 -92l-201 189l-194 -195l-119 94l145 226z" />
<glyph unicode="+" d="M186 541v243h273v285h246v-285h274v-243h-274v-293h-246v293h-273z" />
<glyph unicode="," horiz-adv-x="499" d="M-14 -256l129 526h323l-200 -551z" />
<glyph unicode="-" horiz-adv-x="641" d="M41 465v264h555v-264h-555z" />
<glyph unicode="." horiz-adv-x="514" d="M68 156q0 182 190 182q191 0 191 -182q0 -88 -48 -134.5t-143 -46.5q-190 0 -190 181z" />
<glyph unicode="/" horiz-adv-x="907" d="M18 -188l576 1734h280l-573 -1734h-283z" />
<glyph unicode="0" horiz-adv-x="1198" d="M63 745q0 189 28.5 326.5t92.5 238t170.5 150t257.5 49.5q122 0 212.5 -33t149.5 -93.5t95.5 -155t51 -206.5t14.5 -259q0 -157 -17 -278t-56 -219t-101.5 -160.5t-154.5 -96t-214 -33.5q-151 0 -254.5 50t-163.5 152t-85.5 239t-25.5 329zM393 743q0 -290 42 -408 t165 -118q121 0 164 119.5t43 413.5q0 290 -39.5 403t-159.5 113q-123 0 -169 -117t-46 -406z" />
<glyph unicode="1" horiz-adv-x="905" d="M63 1313q293 23 429 170h210v-1483h-307v1114q-48 -25 -152.5 -44t-164.5 -19z" />
<glyph unicode="2" horiz-adv-x="1110" d="M55 1094q25 211 160.5 313t351.5 102q219 0 333 -99t114 -284q0 -78 -17.5 -145t-61.5 -139.5t-97 -137.5t-144 -165l-241 -267v-6h583v-266h-946v258l318 371q155 179 194 232q91 124 99 225q1 12 1 24q0 156 -165 156q-94 0 -140.5 -54.5t-62.5 -164.5z" />
<glyph unicode="3" horiz-adv-x="1136" d="M41 358l276 52q13 -98 61 -146.5t148 -48.5q93 0 151 55.5t58 165.5q0 115 -59 164t-180 49h-146v234h96q129 0 199 60.5t70 164.5q0 79 -38.5 121.5t-129.5 42.5t-137.5 -45.5t-67.5 -139.5l-266 54q19 101 67 174.5t116.5 114.5t146.5 60t169 19q213 0 329 -94.5 t116 -265.5q0 -70 -24 -130t-65.5 -102t-88.5 -71t-101 -47v-8q153 -35 231.5 -124.5t78.5 -246.5q0 -205 -142.5 -325t-382.5 -120q-72 0 -136.5 12t-125 41t-106 72t-76.5 109t-41 149z" />
<glyph unicode="4" horiz-adv-x="1222" d="M55 332v219l588 932h377v-901h166v-250h-168v-332h-299v332h-664zM328 582h391v618z" />
<glyph unicode="5" horiz-adv-x="1146" d="M39 356l268 56q26 -193 215 -193q96 0 159.5 65.5t63.5 194.5q0 228 -196 228q-114 0 -217 -99l-201 84l55 791h781v-266h-555l-35 -371q112 98 282 98q85 0 154.5 -25.5t124 -78.5t85 -141.5t30.5 -206.5q0 -241 -144 -379t-387 -138q-74 0 -138.5 12t-123.5 40 t-103.5 71.5t-75.5 109t-42 148.5z" />
<glyph unicode="6" horiz-adv-x="1183" d="M96 705q0 79 7.5 154t26 156.5t47.5 151.5t75 134t105 109.5t142 72t181 26.5q165 0 275 -78.5t149 -265.5l-275 -75q-17 101 -58 140.5t-116 39.5q-66 0 -117.5 -41.5t-82 -110.5t-46 -150t-16.5 -169q56 49 140 80.5t180 31.5q183 0 291 -109.5t108 -318.5 q0 -127 -38.5 -225.5t-107 -159.5t-159 -92t-199.5 -31q-120 0 -210.5 37.5t-147 101t-92 159t-49 199.5t-13.5 233zM410 588q2 -55 5.5 -97t12 -87.5t23.5 -78t36.5 -60t54 -41t74.5 -13.5q90 0 136.5 66.5t46.5 183.5q0 113 -40.5 166t-133.5 53q-53 0 -112.5 -27 t-102.5 -65z" />
<glyph unicode="7" horiz-adv-x="1087" d="M63 1217v266h973v-238l-565 -1247h-328l572 1219h-652z" />
<glyph unicode="8" horiz-adv-x="1165" d="M43 362q0 137 68.5 234t216.5 164q-228 110 -228 342q0 190 139 298.5t369 108.5q227 0 351 -93.5t124 -252.5q0 -119 -60.5 -200.5t-184.5 -155.5q152 -69 218 -159.5t66 -241.5q0 -89 -39 -167t-109.5 -137t-177 -93t-233.5 -34q-131 0 -232.5 31t-163 85t-93 122.5 t-31.5 148.5zM346 395q0 -184 223 -184q108 0 166 51.5t58 130.5q0 41 -16 75.5t-39 58.5t-63 47.5t-72 37.5t-83 33q-83 -48 -128.5 -105t-45.5 -145zM420 1145q0 -77 51 -128.5t160 -105.5q72 44 113.5 103t41.5 125q0 147 -184 147q-83 0 -132.5 -37t-49.5 -104z" />
<glyph unicode="9" horiz-adv-x="1181" d="M63 328l275 82q19 -104 64.5 -151.5t129.5 -47.5q86 0 147 66t88.5 169t29.5 234q-55 -48 -139.5 -77.5t-182.5 -29.5q-184 0 -291.5 110t-107.5 325q0 125 39.5 222t110 157t162.5 91t202 31q116 0 204.5 -37.5t144 -101t90.5 -158t49 -199t14 -233.5q0 -84 -6 -159 t-23 -158t-43.5 -152t-71 -132.5t-102.5 -107.5t-140 -70t-182 -26q-397 0 -461 353zM389 1026q0 -113 42 -170t134 -57q54 0 111 25t102 67q-3 72 -8 122.5t-18.5 102.5t-35.5 84t-58.5 52t-86.5 20q-91 0 -136.5 -64t-45.5 -182z" />
<glyph unicode=":" horiz-adv-x="544" d="M82 156q0 182 190 182q191 0 191 -182q0 -88 -48 -134.5t-143 -46.5q-190 0 -190 181zM82 858q0 182 190 182q191 0 191 -182q0 -180 -191 -180q-190 0 -190 180z" />
<glyph unicode=";" horiz-adv-x="532" d="M-10 -256l129 526h323l-200 -551zM111 858q0 182 190 182q191 0 191 -182q0 -180 -191 -180q-190 0 -190 180z" />
<glyph unicode="&#x3c;" d="M141 451v290l801 287v-256l-534 -174l534 -176v-252z" />
<glyph unicode="=" d="M188 260v246h791v-246h-791zM188 647v246h791v-246h-791z" />
<glyph unicode="&#x3e;" d="M199 174v250l534 174l-534 174v256l800 -287v-286z" />
<glyph unicode="?" horiz-adv-x="1120" d="M29 1081q25 198 162.5 310t371.5 112q78 0 147 -13.5t132.5 -45.5t109 -81t72.5 -125t27 -173q0 -189 -110 -308t-316 -167v-187h-308v375q84 7 149.5 22.5t127.5 46.5t96.5 87.5t34.5 134.5q0 92 -47.5 135t-130.5 43q-95 0 -146.5 -51t-70.5 -162zM285 139 q0 166 182 166q90 0 136 -43t46 -123q0 -79 -45.5 -121.5t-136.5 -42.5q-182 0 -182 164z" />
<glyph unicode="@" horiz-adv-x="1751" d="M82 377q0 239 104.5 424.5t297 289t442.5 103.5q219 0 386 -81.5t261 -237t94 -365.5q0 -263 -106 -395.5t-285 -132.5q-91 0 -154 28t-88 76q-79 -102 -233 -102q-143 0 -221 105t-78 278q0 195 92.5 320.5t249.5 125.5q111 0 176 -72l16 60h166v-539q0 -54 18.5 -82 t71.5 -28q46 0 80 32.5t52 86t26 110t8 115.5q0 238 -134.5 374t-412.5 136q-128 0 -232.5 -35.5t-173.5 -95.5t-116.5 -140.5t-68.5 -167.5t-21 -180q0 -154 44.5 -269.5t126.5 -185.5t190.5 -104.5t244.5 -34.5q197 0 365 84l63 -174q-154 -98 -450 -98q-169 0 -313 48 t-253.5 141t-172 242.5t-62.5 340.5zM715 393q0 -243 141 -243q81 0 150 81v375q-44 47 -119 47q-79 0 -125.5 -64.5t-46.5 -195.5z" />
<glyph unicode="A" horiz-adv-x="1452" d="M29 0l485 1483h393l525 -1483h-347l-122 360h-494l-115 -360h-325zM522 612h375l-184 574h-8z" />
<glyph unicode="B" horiz-adv-x="1304" d="M152 0v1483h587q127 0 217 -27.5t139.5 -78.5t71 -113.5t21.5 -143.5q0 -140 -78.5 -226t-202.5 -120v-4q344 -42 344 -362q0 -89 -27.5 -158.5t-76 -116t-119.5 -77t-153.5 -43.5t-182.5 -13h-540zM467 244h162q70 0 118 7.5t88.5 27.5t60 59t19.5 98q0 60 -19 100 t-57 60t-80 27.5t-100 7.5h-192v-387zM467 870h117q49 0 87.5 4t79 16.5t67.5 34t44 58t17 86.5q0 47 -13 79t-32.5 50t-55 27.5t-66.5 11.5t-81 2h-164v-369z" />
<glyph unicode="C" horiz-adv-x="1423" d="M78 725q0 360 186.5 572t528.5 212q261 0 416 -131.5t167 -400.5l-289 -25q-13 157 -84.5 227t-214.5 70q-186 0 -285.5 -125t-99.5 -383q0 -266 91.5 -385.5t271.5 -119.5q149 0 220.5 68t100.5 198l285 -49q-14 -103 -56.5 -185.5t-102 -136t-135.5 -89.5t-154.5 -51.5 t-161.5 -15.5q-684 0 -684 750z" />
<glyph unicode="D" horiz-adv-x="1482" d="M152 0v1483h520q374 0 554.5 -188t180.5 -531q0 -173 -46.5 -311.5t-139 -240.5t-241 -157t-343.5 -55h-485zM467 254h156q126 0 216 33.5t143 99t77 154t24 207.5q0 137 -26.5 230.5t-82.5 148.5t-135.5 78.5t-193.5 23.5h-178v-975z" />
<glyph unicode="E" horiz-adv-x="1193" d="M152 0v1483h940v-264h-625v-349h588v-258h-588v-346h661v-266h-976z" />
<glyph unicode="F" horiz-adv-x="1132" d="M152 0v1483h933v-264h-618v-377h569v-260h-569v-582h-315z" />
<glyph unicode="G" horiz-adv-x="1513" d="M78 717q0 241 80 418t243.5 275.5t395.5 98.5q125 0 225 -29t178.5 -89.5t125 -161.5t56.5 -238l-295 -28q-6 63 -23.5 112t-50.5 89.5t-89 62.5t-133 22q-192 0 -288.5 -131t-96.5 -373q0 -265 90 -390.5t284 -125.5q144 0 223.5 73t79.5 185v54h-270v231h582v-772h-230 l-35 182q-46 -97 -164 -152t-259 -55q-163 0 -285.5 54.5t-197 155t-110.5 233.5t-36 299z" />
<glyph unicode="H" horiz-adv-x="1501" d="M152 0v1483h315v-602h567v602h318v-1483h-318v608h-567v-608h-315z" />
<glyph unicode="I" horiz-adv-x="618" d="M152 0v1483h315v-1483h-315z" />
<glyph unicode="J" horiz-adv-x="1085" d="M31 395l303 45q4 -43 8.5 -69.5t14.5 -56t25 -45t41 -26t62 -10.5q74 0 110 40t36 135v1075h317v-1067q0 -219 -118 -330t-349 -111q-100 0 -177.5 21.5t-139 69t-95.5 130.5t-38 199z" />
<glyph unicode="K" horiz-adv-x="1378" d="M152 0v1483h313v-635l575 635h336l-542 -617l534 -866h-369l-391 621l-143 -156v-465h-313z" />
<glyph unicode="L" horiz-adv-x="1163" d="M152 0v1483h315v-1217h635v-266h-950z" />
<glyph unicode="M" horiz-adv-x="1873" d="M152 0v1483h471l313 -1084h8l311 1084h469v-1483h-294v1163h-9l-350 -1163h-285l-337 1165h-9v-1165h-288z" />
<glyph unicode="N" horiz-adv-x="1525" d="M152 0v1483h376l562 -1051v1051h286v-1483h-364l-572 1047v-1047h-288z" />
<glyph unicode="O" horiz-adv-x="1556" d="M78 735q0 167 46.5 307t135 244.5t227.5 163.5t314 59t308 -58t213 -161t119.5 -235t39.5 -291q0 -370 -180.5 -579.5t-532.5 -209.5q-179 0 -313.5 56t-215.5 159t-121 239t-40 306zM403 741q0 -499 377 -499q176 0 275.5 120t99.5 383q0 251 -93 374.5t-267 123.5 q-185 0 -288.5 -125.5t-103.5 -376.5z" />
<glyph unicode="P" horiz-adv-x="1271" d="M152 0v1483h561q110 0 196.5 -26t141.5 -69t90.5 -103.5t50 -125.5t14.5 -139q0 -268 -145.5 -404.5t-433.5 -136.5h-162v-479h-313zM465 733h127q66 0 115 11t90.5 39t63.5 81.5t22 132.5q0 69 -19.5 116t-57 71.5t-83 34.5t-107.5 10h-151v-496z" />
<glyph unicode="Q" horiz-adv-x="1556" d="M78 735q0 167 46.5 307t135 244.5t227.5 163.5t314 59t308 -58t213 -161t119.5 -235t39.5 -291q0 -346 -170 -553l168 -180l-197 -166l-170 184q-158 -74 -344 -74q-179 0 -313.5 56t-215.5 159t-121 239t-40 306zM403 741q0 -257 100 -381t281 -124q81 0 142 20 l-232 246l191 170l219 -248q53 109 53 321q0 251 -94 374.5t-268 123.5q-185 0 -288.5 -125.5t-103.5 -376.5z" />
<glyph unicode="R" horiz-adv-x="1314" d="M152 0v1483h577q133 0 231.5 -34t153.5 -93.5t81 -132t26 -158.5q0 -158 -68 -263.5t-188 -160.5l335 -641h-339l-293 563h-203v-563h-313zM465 811h162q121 0 194.5 52.5t73.5 170.5q0 103 -63.5 149t-192.5 46h-174v-418z" />
<glyph unicode="S" horiz-adv-x="1220" d="M23 446l286 43q8 -48 19 -83t33 -71t52.5 -58.5t79 -37t111.5 -14.5q109 0 177.5 43.5t68.5 139.5q0 49 -26.5 85t-71 58t-102.5 39t-122 34t-128 36.5t-122 52t-102.5 76.5t-71 114t-26.5 160q0 140 73.5 243t194 153t272.5 50q85 0 155 -11t138 -40.5t116.5 -77 t80.5 -125.5t39 -180l-289 -33q-10 111 -65 167.5t-179 56.5q-110 0 -165.5 -42.5t-55.5 -115.5q0 -49 26.5 -86t71 -60t102 -42t121.5 -37t128 -39t121.5 -54.5t102 -77.5t71 -112.5t26.5 -155.5q0 -122 -46.5 -214.5t-127 -146.5t-179.5 -81t-214 -27q-540 0 -573 471z " />
<glyph unicode="T" horiz-adv-x="1218" d="M16 1217v266h1186v-266h-432v-1217h-317v1217h-437z" />
<glyph unicode="U" horiz-adv-x="1449" d="M133 543v940h318v-897q0 -182 60 -264t218 -82q153 0 211.5 77t58.5 263v903h316v-948q0 -286 -155 -423t-443 -137q-305 0 -444.5 137.5t-139.5 430.5z" />
<glyph unicode="V" horiz-adv-x="1355" d="M-6 1483h354l338 -1172h12l338 1172h326l-461 -1483h-426z" />
<glyph unicode="W" horiz-adv-x="1974" d="M16 1483h330l209 -1143h8l264 1143h338l273 -1149h10l192 1149h318l-318 -1483h-403l-240 1022h-8l-237 -1022h-416z" />
<glyph unicode="X" horiz-adv-x="1333" d="M-2 0l479 748l-457 735h353l303 -502l307 502h328l-463 -733l487 -750h-364l-324 494l-309 -494h-340z" />
<glyph unicode="Y" horiz-adv-x="1241" d="M-37 1483h346l326 -635h10l313 635h320l-483 -924v-559h-318v555z" />
<glyph unicode="Z" horiz-adv-x="1212" d="M55 0v231l703 988h-684v264h1050v-236l-690 -981h719v-266h-1098z" />
<glyph unicode="[" horiz-adv-x="651" d="M113 -293v1776h465v-201h-166v-1374h166v-201h-465z" />
<glyph unicode="\" horiz-adv-x="913" d="M39 1546h280l576 -1734h-283z" />
<glyph unicode="]" horiz-adv-x="651" d="M74 -92h166v1374h-166v201h465v-1776h-465v201z" />
<glyph unicode="^" horiz-adv-x="1398" d="M141 612l404 748h313l408 -748h-295l-273 484l-266 -484h-291z" />
<glyph unicode="_" horiz-adv-x="1024" d="M0 -145h1024v-226h-1024v226z" />
<glyph unicode="`" horiz-adv-x="1024" d="M195 1522h331l152 -332l-207 -19z" />
<glyph unicode="a" horiz-adv-x="1142" d="M70 260q0 68 20 123.5t53 93.5t82 67t101 46t115.5 27t120 13t120.5 3v39q0 51 -5 82.5t-20 59t-46.5 40t-80.5 12.5q-75 0 -110.5 -33.5t-50.5 -113.5l-263 51q26 157 133 238.5t318 81.5q217 0 322.5 -90t105.5 -287v-447q0 -45 13 -63.5t51 -18.5q19 0 63 13l8 -179 q-32 -16 -90 -28.5t-106 -12.5q-95 0 -148.5 31.5t-70.5 104.5q-107 -138 -318 -138q-76 0 -134.5 20t-92 49.5t-55 69.5t-28.5 75t-7 71zM381 311q0 -116 125 -116q52 0 101.5 21t76.5 48v189h-49q-122 -3 -188 -34.5t-66 -107.5z" />
<glyph unicode="b" horiz-adv-x="1212" d="M121 0v1546h303v-575q122 119 321 119q84 0 153 -29t124 -89.5t86 -166t31 -248.5q0 -153 -33 -266.5t-94 -181.5t-140 -101t-178 -33q-178 0 -293 115h-6l-14 -90h-260zM428 293q94 -70 186 -70q102 0 150.5 80.5t48.5 245.5q0 67 -9 118t-29.5 91.5t-58 62t-91.5 21.5 q-52 0 -106 -24t-91 -58v-467z" />
<glyph unicode="c" horiz-adv-x="1114" d="M70 516q0 275 142 424.5t402 149.5q194 0 312 -105.5t133 -298.5l-277 -41q-10 106 -48.5 156.5t-125.5 50.5q-48 0 -84 -13t-67 -45t-47.5 -93.5t-16.5 -151.5q0 -178 53.5 -255t157.5 -77q89 0 137.5 47t61.5 148l260 -50q-27 -194 -155 -290.5t-324 -96.5 q-131 0 -230 40t-161 113t-92.5 170.5t-30.5 217.5z" />
<glyph unicode="d" horiz-adv-x="1210" d="M76 512q0 124 26 224t68.5 165t101.5 108.5t122 62t132 18.5q173 0 271 -91v547h297v-1546h-258l-19 104l-6 2q-118 -131 -315 -131t-308.5 130.5t-111.5 406.5zM399 522q0 -303 205 -303q99 0 182 76v489q-79 60 -172 60q-111 0 -163 -87t-52 -235z" />
<glyph unicode="e" horiz-adv-x="1120" d="M70 530q0 140 41 249t113 176t165 101t203 34q234 0 346.5 -130.5t112.5 -363.5q0 -74 -7 -139h-649q4 -129 57.5 -185.5t157.5 -56.5q78 0 118 39t56 113l260 -64q-30 -152 -147.5 -240t-304.5 -88q-115 0 -205.5 30.5t-149 81.5t-97 123t-54.5 151t-16 169zM399 653 h332q0 112 -39 162.5t-117 50.5q-74 0 -124.5 -52t-51.5 -161z" />
<glyph unicode="f" horiz-adv-x="749" d="M12 842v225h144v123q0 191 104.5 285t288.5 94q75 0 139 -12t96 -27l-12 -219q-76 26 -143 26q-81 0 -122.5 -37t-41.5 -139v-94h283v-225h-283v-842h-309v842h-144z" />
<glyph unicode="g" horiz-adv-x="1146" d="M39 -213q0 74 51.5 125t140.5 68v8q-155 46 -155 180q0 73 40 124.5t126 113.5q-74 42 -115 115.5t-41 172.5q0 175 126 285.5t349 110.5q185 0 283 -66q75 162 196 162q37 0 86 -19v-202q-24 2 -47 2q-67 0 -129 -19q88 -101 88 -239q0 -177 -130 -280t-339 -103 q-97 0 -178 22q-39 -39 -39 -65q0 -25 21 -39t76 -17l303 -18q179 -11 268.5 -81.5t89.5 -225.5q0 -96 -42.5 -167t-119.5 -113t-175.5 -62.5t-219.5 -20.5q-143 0 -244.5 17.5t-159.5 51.5t-84 78t-26 101zM317 -154q0 -108 261 -108q74 0 122 8t78.5 33t30.5 67 q0 36 -27.5 58t-103.5 26l-297 19q-64 -48 -64 -103zM379 711q0 -164 190 -164q85 0 136 43.5t51 120.5q0 81 -48 121t-135 40q-89 0 -141.5 -39.5t-52.5 -121.5z" />
<glyph unicode="h" horiz-adv-x="1193" d="M117 0v1546h307v-577q156 121 330 121q171 0 251 -88.5t80 -272.5v-729h-309v674q0 86 -34 125t-107 39q-58 0 -115.5 -26t-93.5 -58v-754h-309z" />
<glyph unicode="i" horiz-adv-x="548" d="M92 1395q0 89 49 137.5t138 48.5q88 0 137 -48.5t49 -137.5t-49 -139t-137 -50q-89 0 -138 50t-49 139zM123 0v1067h309v-1067h-309z" />
<glyph unicode="j" horiz-adv-x="544" d="M-201 -399l23 231q90 -41 168 -41q62 0 97.5 35t35.5 125v1116h309v-1151q0 -191 -101.5 -282t-279.5 -91q-78 0 -149 18t-103 40zM92 1401q0 89 49.5 136.5t137.5 47.5q89 0 137.5 -47.5t48.5 -136.5q0 -91 -48.5 -141t-137.5 -50q-88 0 -137.5 50.5t-49.5 140.5z" />
<glyph unicode="k" horiz-adv-x="1155" d="M121 0v1546h309v-852l352 373h342l-354 -383l381 -684h-342l-277 487l-102 -100v-387h-309z" />
<glyph unicode="l" horiz-adv-x="548" d="M123 0v1546h309v-1546h-309z" />
<glyph unicode="m" horiz-adv-x="1748" d="M117 0v1067h262l14 -100q148 123 324 123q204 0 272 -134q131 134 332 134q319 0 319 -355v-735h-309v686q0 78 -28 116t-93 38q-43 0 -95 -21.5t-81 -52.5q0 -4 1 -13t1 -14v-739h-309v686q0 78 -27.5 116t-91.5 38q-46 0 -98.5 -22.5t-83.5 -53.5v-764h-309z" />
<glyph unicode="n" horiz-adv-x="1193" d="M117 0v1067h274l17 -106q140 129 340 129q175 0 256 -88t81 -273v-729h-309v676q0 86 -34 125t-107 39q-58 0 -115.5 -26t-93.5 -58v-756h-309z" />
<glyph unicode="o" horiz-adv-x="1202" d="M70 528q0 264 138 413t410 149q136 0 236.5 -39.5t160.5 -112.5t89 -169.5t29 -217.5q0 -272 -133 -424t-410 -152q-141 0 -243.5 41t-162 117t-87 173.5t-27.5 221.5zM393 537q0 -179 48.5 -255.5t162.5 -76.5q105 0 156 77t51 259q0 171 -48 243t-153 72 q-108 0 -162.5 -75.5t-54.5 -243.5z" />
<glyph unicode="p" horiz-adv-x="1212" d="M121 -434v1501h262l18 -109q132 132 334 132q88 0 159 -28.5t126.5 -89.5t86 -166.5t30.5 -248.5q0 -154 -34 -269t-95.5 -182t-137.5 -99t-168 -32q-167 0 -282 103v-512h-299zM426 295q28 -26 81 -49t105 -23q201 0 201 326q0 158 -46 226.5t-142 68.5 q-50 0 -104.5 -24.5t-94.5 -57.5v-467z" />
<glyph unicode="q" horiz-adv-x="1208" d="M76 516q0 123 26 222t69 163.5t102 108t122.5 62t132.5 18.5q183 0 283 -121l29 98h254v-1501h-295v526q-120 -117 -307 -117q-197 0 -306.5 131t-109.5 410zM399 528q0 -307 205 -307q98 0 182 74v485q-33 28 -80 46t-96 18q-109 0 -160 -84t-51 -232z" />
<glyph unicode="r" horiz-adv-x="804" d="M117 0v1067h264l22 -168q132 191 336 191q8 0 26.5 -1.5t27.5 -1.5v-301q-27 2 -54 2q-76 0 -148 -18q-98 -26 -165 -80v-690h-309z" />
<glyph unicode="s" horiz-adv-x="1026" d="M47 268l252 82q11 -35 24 -60.5t36.5 -50.5t62 -38t90.5 -13q154 0 154 101q0 28 -11.5 46.5t-39.5 30.5t-56 19t-80 16q-8 1 -12 2q-50 9 -80.5 16t-76 21t-73.5 29t-61 40.5t-51 57t-30.5 76t-12.5 98.5q0 114 62.5 194.5t160.5 117.5t221 37q345 0 426 -283l-254 -80 q-22 73 -63 109t-121 36q-135 0 -135 -94q0 -19 6.5 -33.5t21 -25.5t31 -19t43.5 -14.5t50 -11t59 -11.5q4 -1 6 -1q49 -9 80 -15.5t75 -19.5t71.5 -28t58.5 -39.5t48.5 -54.5t29.5 -73t12 -96q0 -118 -63.5 -201t-167.5 -121.5t-238 -38.5q-199 0 -312.5 78t-142.5 215z " />
<glyph unicode="t" horiz-adv-x="843" d="M14 842v225h160v315l309 41v-356h283v-225h-283v-477q0 -74 27.5 -109t97.5 -35q44 0 93.5 14.5t82.5 34.5l43 -219q-45 -29 -132 -52.5t-181 -23.5q-170 0 -255 83.5t-85 263.5v520h-160z" />
<glyph unicode="u" horiz-adv-x="1183" d="M113 332v735h309v-674q0 -87 31 -126.5t104 -39.5q55 0 111 26t92 58v756h309v-1067h-266l-23 115q-122 -138 -340 -138q-327 0 -327 355z" />
<glyph unicode="v" horiz-adv-x="1097" d="M-8 1067h334l227 -770h8l227 770h318l-377 -1067h-360z" />
<glyph unicode="w" horiz-adv-x="1665" d="M-8 1067h309l195 -750h4l188 750h303l189 -745h6l186 745h301l-317 -1067h-348l-172 696h-5l-157 -696h-367z" />
<glyph unicode="x" horiz-adv-x="1087" d="M14 1067h334l207 -326l213 326h297l-348 -518l358 -549h-330l-217 330l-211 -330h-297l349 535z" />
<glyph unicode="y" horiz-adv-x="1077" d="M-8 1067h334l223 -743h6l215 743h317q-256 -717 -423 -1171q-69 -194 -156 -273.5t-246 -79.5q-61 0 -129.5 13.5t-103.5 31.5l22 224q105 -33 162 -33q55 0 91.5 27t60.5 88l32 83z" />
<glyph unicode="z" horiz-adv-x="954" d="M55 0v219l492 617h-488v231h824v-219l-475 -600h503v-248h-856z" />
<glyph unicode="{" horiz-adv-x="690" d="M4 508v188h43q131 0 131 148q0 77 -14 210.5t-14 188.5q0 136 79 201t238 65h156v-206h-45q-55 0 -76 -24.5t-21 -74.5q0 -60 15.5 -189.5t15.5 -191.5q0 -96 -40.5 -142.5t-131.5 -80.5q90 -32 131 -78t41 -139q0 -63 -15.5 -187.5t-15.5 -183.5q0 -52 22 -77t83 -25h37 v-207h-156q-160 0 -238.5 65.5t-78.5 200.5q0 59 14 187t14 204q0 148 -131 148h-43z" />
<glyph unicode="|" horiz-adv-x="573" d="M147 -293v1839h281v-1839h-281z" />
<glyph unicode="}" horiz-adv-x="690" d="M68 -90h45q55 0 75.5 24t20.5 74q0 60 -15.5 189.5t-15.5 191.5q0 96 40.5 142.5t131.5 80.5q-90 32 -131 78t-41 139q0 63 15.5 187.5t15.5 183.5q0 52 -22 77.5t-83 25.5h-36v206h155q160 0 239 -65.5t79 -200.5q0 -59 -14.5 -187t-14.5 -204q0 -147 131 -147h43v-189 h-43q-131 0 -131 -147q0 -77 14.5 -211t14.5 -189q0 -136 -79.5 -201t-238.5 -65h-155v207z" />
<glyph unicode="~" horiz-adv-x="1228" d="M143 612q-18 138 40 224t177 86q72 0 264.5 -45.5t233.5 -45.5q35 0 48.5 20t13.5 71l170 -9q16 -132 -35.5 -216.5t-165.5 -84.5q-77 0 -273 45t-233 45q-35 0 -49.5 -21t-7.5 -75z" />
<glyph unicode="&#xa1;" horiz-adv-x="593" d="M121 926q0 79 46 121.5t136 42.5q184 0 184 -164q0 -80 -46.5 -123t-137.5 -43q-90 0 -136 43t-46 123zM135 -418l39 1080h258l39 -1080h-336z" />
<glyph unicode="&#xa2;" horiz-adv-x="1099" d="M90 719q0 214 99 347.5t278 172.5v217h260v-213q135 -25 219 -121t96 -245l-278 -41q-9 96 -44.5 140t-111.5 44q-95 0 -147.5 -58.5t-52.5 -211.5q0 -149 46.5 -221t153.5 -72q83 0 122.5 41t57.5 137l259 -47q-21 -148 -110.5 -240t-225.5 -119v-229h-260v229 q-178 34 -269.5 164.5t-91.5 325.5z" />
<glyph unicode="&#xa3;" horiz-adv-x="1214" d="M33 0v246h121q75 65 107 121.5t32 130.5q0 66 -35 141h-197v225h134q-24 41 -37.5 68t-29 79t-15.5 101q0 179 138 288t372 109q210 0 329 -92t150 -299l-275 -47q-8 49 -19 82.5t-33 64.5t-60 46.5t-92 15.5q-92 0 -140.5 -43.5t-48.5 -128.5q0 -14 1 -28t5 -30t6.5 -27 t10 -29.5t10 -26t12.5 -28t11.5 -24.5t13 -27t12.5 -24h395v-225h-338q23 -59 23 -123q0 -78 -28.5 -141t-96.5 -129h215q85 0 132 20t69 59t35 115l260 -45q-17 -206 -128 -300.5t-339 -94.5h-682z" />
<glyph unicode="&#xa4;" d="M-39 160l186 186q-49 101 -49 227q0 111 54 213l-185 183l170 172l174 -172q109 67 254 67q152 0 250 -61l168 164l160 -168l-172 -174q47 -96 47 -215q0 -121 -60 -238l185 -182l-170 -170l-178 176q-105 -62 -244 -62q-141 0 -248 66q-22 -24 -95 -96.5t-83 -83.5z M350 573q0 -106 53 -172.5t158 -66.5q98 0 151.5 67.5t53.5 171.5q0 111 -53.5 172.5t-157.5 61.5q-98 0 -151.5 -64.5t-53.5 -169.5z" />
<glyph unicode="&#xa5;" horiz-adv-x="1175" d="M25 1483h331l244 -518h8l236 518h309l-319 -629h180v-192h-264v-142h264v-192h-264v-328h-310v328h-260v192h260v142h-260v192h170z" />
<glyph unicode="&#xa6;" horiz-adv-x="573" d="M147 -293v795h281v-795h-281zM147 854v692h281v-692h-281z" />
<glyph unicode="&#xa7;" horiz-adv-x="1165" d="M84 483q0 92 45.5 164t138.5 133q-118 111 -118 275q0 122 66 213.5t174 137.5t241 46q90 0 165 -21.5t135.5 -66t98.5 -119.5t47 -176l-266 -31q-8 98 -52 146.5t-138 48.5q-81 0 -128 -35.5t-47 -101.5q0 -44 22 -77.5t59.5 -55t86 -39t102 -33.5t107 -34t102 -45 t86 -62t59.5 -89t22 -122q0 -178 -185 -310q117 -106 117 -268q0 -187 -129.5 -293t-349.5 -106q-92 0 -167.5 21t-136.5 64.5t-99 118t-48 175.5l268 30q8 -97 52.5 -145.5t138.5 -48.5q81 0 128.5 37.5t47.5 105.5q0 44 -22 76.5t-59.5 53t-86 36.5t-102 31t-106.5 32 t-101.5 44.5t-86 64t-59.5 94t-22 131.5zM360 553q0 -33 15.5 -59.5t39 -43.5t62.5 -33.5t73.5 -26.5t86 -25.5t86.5 -28.5q92 55 92 129q0 37 -20.5 65t-62 47t-83 32.5t-104.5 32.5t-105 36q-80 -52 -80 -125z" />
<glyph unicode="&#xa8;" horiz-adv-x="1024" d="M86 1391q0 78 51 125t135 47q80 0 130.5 -47.5t50.5 -124.5t-50.5 -123.5t-130.5 -46.5q-84 0 -135 46t-51 124zM569 1391q0 78 51 125t134 47q82 0 131 -47t49 -125t-49 -124t-131 -46q-84 0 -134.5 46t-50.5 124z" />
<glyph unicode="&#xa9;" horiz-adv-x="1642" d="M102 668q0 165 57 301.5t155 227t229.5 140t281.5 49.5q332 0 524.5 -187t192.5 -503q0 -213 -91 -377.5t-255 -254t-375 -89.5q-174 0 -312 53t-226.5 146.5t-134.5 219t-46 274.5zM279 670q0 -250 144.5 -391.5t401.5 -141.5q255 0 400 146t145 401q0 173 -70.5 297 t-192.5 185t-282 61q-241 0 -393.5 -149t-152.5 -408zM467 684q0 178 98 287.5t275 109.5q127 0 214.5 -69.5t94.5 -204.5l-150 -16q-9 81 -50 118t-118 37q-90 0 -143 -63.5t-53 -202.5q0 -55 10 -100t31.5 -82.5t61 -58.5t93.5 -21q152 0 181 157l145 -26 q-10 -76 -45 -130.5t-84.5 -82t-97.5 -39.5t-99 -12q-188 0 -276 107.5t-88 291.5z" />
<glyph unicode="&#xaa;" horiz-adv-x="813" d="M53 750q0 46 15 82.5t38 61t58.5 42.5t69 27.5t78.5 15.5t77.5 7.5t73.5 2.5v27q0 27 -2.5 43.5t-11 33t-27.5 24t-49 7.5q-44 0 -66.5 -22t-30.5 -72l-204 37q40 225 319 225q155 0 231 -59.5t76 -188.5v-274q0 -37 17 -47.5t61 2.5l6 -135q-65 -27 -131 -27 q-139 0 -164 96q-77 -98 -215 -98q-64 0 -110 18.5t-68 49.5t-31.5 60.5t-9.5 60.5zM295 780q0 -61 74 -61q54 0 96 37v104q-31 0 -51 -1.5t-52 -8t-49.5 -24.5t-17.5 -46z" />
<glyph unicode="&#xab;" horiz-adv-x="950" d="M76 526l182 310h250l-180 -301l172 -324h-248zM457 526l182 310h250l-180 -301l172 -324h-248z" />
<glyph unicode="&#xac;" d="M174 543v243h793v-438h-228v195h-565z" />
<glyph unicode="&#xad;" horiz-adv-x="636" d="M41 465v264h555v-264h-555z" />
<glyph unicode="&#xae;" horiz-adv-x="952" d="M82 954q0 180 113 289t282 109q180 0 286.5 -104t106.5 -277q0 -175 -110 -285.5t-287 -110.5q-186 0 -288.5 106.5t-102.5 272.5zM186 958q0 -132 78.5 -208t212.5 -76q133 0 212 79t79 212q0 138 -81 214t-210 76q-125 0 -208 -80.5t-83 -216.5zM344 782v389h145 q80 0 114 -31.5t34 -80.5q0 -77 -72 -103l105 -174h-109l-86 146h-35v-146h-96zM440 997h27q72 0 72 54q0 49 -62 49h-37v-103z" />
<glyph unicode="&#xaf;" horiz-adv-x="1024" d="M193 1231v209h636v-209h-636z" />
<glyph unicode="&#xb0;" horiz-adv-x="733" d="M127 1288q0 111 70.5 178.5t173.5 67.5q102 0 170.5 -66t68.5 -174t-66.5 -174.5t-172.5 -66.5q-109 0 -176.5 64.5t-67.5 170.5zM268 1288q0 -43 29 -71.5t74 -28.5q43 0 70.5 30t27.5 76q0 45 -28 75t-70 30q-43 0 -73 -30.5t-30 -80.5z" />
<glyph unicode="&#xb1;" d="M186 0v244h793v-244h-793zM186 541v243h273v285h246v-285h274v-243h-274v-246h-246v246h-273z" />
<glyph unicode="&#xb2;" horiz-adv-x="829" d="M61 1376q14 140 113 210.5t242 70.5q164 0 243.5 -66t79.5 -180q0 -71 -31 -133.5t-85.5 -119t-161.5 -146.5l-66 -68v-8h359v-221h-670v221l199 199q108 108 146 160t38 98q0 69 -70 69q-87 0 -102 -116z" />
<glyph unicode="&#xb3;" horiz-adv-x="843" d="M45 954l234 43q6 -55 31.5 -78.5t74.5 -23.5q45 0 71.5 24.5t26.5 73.5q0 56 -26 79.5t-90 23.5h-103v176h64q72 0 107.5 32t35.5 89q0 73 -78 73q-79 0 -100 -96l-225 41q10 55 35 98t58 70.5t76.5 45.5t88 25t94.5 7q152 0 234.5 -57.5t82.5 -165.5q0 -154 -178 -222 v-6q201 -41 201 -219q0 -135 -103.5 -211t-267.5 -76q-50 0 -94 7t-87.5 25t-76 46t-56 73t-30.5 103z" />
<glyph unicode="&#xb4;" horiz-adv-x="1024" d="M350 1190l154 332h330l-277 -351z" />
<glyph unicode="&#xb5;" horiz-adv-x="1288" d="M166 -360v1427h309v-676q0 -91 24.5 -129.5t88.5 -38.5q103 0 209 88v756h309v-1067h-256l-10 111h-11q-77 -74 -164 -104t-198 -9l-2 -2l20 -356h-319z" />
<glyph unicode="&#xb6;" horiz-adv-x="1230" d="M78 973q0 110 29.5 197t81 145t125 96t158 55t183.5 17h428l2 -1755h-215v1562h-135v-1562h-215v772q-221 13 -331.5 136t-110.5 337z" />
<glyph unicode="&#xb7;" horiz-adv-x="487" d="M70 633q0 164 176 164q86 0 130 -42t44 -122q0 -162 -174 -162q-176 0 -176 162z" />
<glyph unicode="&#xb8;" horiz-adv-x="1024" d="M279 -475l30 143q58 -14 99 -14q102 0 102 76q0 44 -31 58.5t-100 16.5l33 256l147 -16l-18 -137q174 -31 174 -189q0 -108 -75 -165.5t-194 -57.5q-91 0 -167 29z" />
<glyph unicode="&#xb9;" horiz-adv-x="671" d="M63 1530q199 14 291 106h199v-925h-272v643q-30 -14 -100 -25.5t-107 -11.5z" />
<glyph unicode="&#xba;" horiz-adv-x="851" d="M51 924q0 174 96 271t289 97q189 0 277 -94.5t88 -257.5q0 -180 -94.5 -279.5t-290.5 -99.5q-365 0 -365 363zM303 930q0 -108 28 -154.5t95 -46.5q65 0 94 45t29 158q0 107 -27.5 148.5t-91.5 41.5q-65 0 -96 -44.5t-31 -147.5z" />
<glyph unicode="&#xbb;" horiz-adv-x="950" d="M63 836h250l183 -314l-179 -311h-245l172 313zM444 836h250l183 -314l-179 -311h-245l172 313z" />
<glyph unicode="&#xbc;" horiz-adv-x="2072" d="M96 1391q199 14 291 106h199v-926h-273v643q-30 -14 -100 -25t-107 -11zM477 -25l725 1508h283l-723 -1508h-285zM1180 188v183l360 555h326v-533h106v-205h-104v-188h-262v188h-426zM1405 393h201v307z" />
<glyph unicode="&#xbd;" horiz-adv-x="2072" d="M102 1391q199 14 291 106h199v-926h-273v643q-30 -14 -99.5 -25t-106.5 -11zM467 -25l725 1508h283l-723 -1508h-285zM1257 662q14 140 113 210t242 70q164 0 243.5 -66t79.5 -180q0 -71 -31 -133.5t-85.5 -119t-161.5 -146.5l-66 -68v-8h359v-221h-670v221l199 199 q108 108 146 160t38 98q0 70 -70 70q-87 0 -102 -117z" />
<glyph unicode="&#xbe;" horiz-adv-x="2072" d="M82 815l233 43q6 -55 32 -78.5t75 -23.5q45 0 71.5 24.5t26.5 73.5q0 56 -26.5 79t-90.5 23h-102v177h64q72 0 107.5 31.5t35.5 88.5q0 74 -78 74q-79 0 -100 -96l-226 41q13 69 47 118.5t83.5 76.5t104 39t118.5 12q152 0 234.5 -58t82.5 -166q0 -153 -178 -221v-6 q201 -41 201 -219q0 -135 -103.5 -211t-267.5 -76q-50 0 -94 7t-87.5 25t-76 46t-56 73t-30.5 103zM543 -25l725 1508h282l-723 -1508h-284zM1204 188v183l361 555h325v-533h107v-205h-105v-188h-262v188h-426zM1430 393h200v307z" />
<glyph unicode="&#xbf;" horiz-adv-x="1097" d="M57 0q0 189 110 308t316 167v187h308v-375q-84 -7 -149.5 -22.5t-127.5 -46.5t-96.5 -87.5t-34.5 -134.5q0 -92 47.5 -135t130.5 -43q95 0 146.5 51t70.5 162l301 -47q-25 -198 -162.5 -310t-371.5 -112q-78 0 -147 13.5t-132.5 45.5t-109 81t-72.5 125t-27 173zM459 926 q0 79 45.5 121.5t136.5 42.5q182 0 182 -164q0 -166 -182 -166q-90 0 -136 43t-46 123z" />
<glyph unicode="&#xc0;" horiz-adv-x="1452" d="M29 0l485 1483h393l525 -1483h-347l-122 360h-494l-115 -360h-325zM369 1876h331l187 -287l-219 -16zM522 612h375l-184 574h-8z" />
<glyph unicode="&#xc1;" horiz-adv-x="1452" d="M29 0l485 1483h393l525 -1483h-347l-122 360h-494l-115 -360h-325zM522 612h375l-184 574h-8zM528 1589l187 287h332l-299 -303z" />
<glyph unicode="&#xc2;" horiz-adv-x="1452" d="M29 0l485 1483h393l525 -1483h-347l-122 360h-494l-115 -360h-325zM350 1587l219 291h287l209 -291l-205 -12l-147 147l-154 -149zM522 612h375l-184 574h-8z" />
<glyph unicode="&#xc3;" horiz-adv-x="1452" d="M29 0l485 1483h393l525 -1483h-347l-122 360h-494l-115 -360h-325zM352 1610q-17 133 40 214t163 81q57 0 113 -22t104.5 -44t85.5 -22q35 0 48.5 19.5t13.5 70.5l155 -9q15 -130 -32.5 -209t-153.5 -79q-60 0 -119 22.5t-108 45t-84 22.5t-50 -21t-8 -75zM522 612h375 l-184 574h-8z" />
<glyph unicode="&#xc4;" horiz-adv-x="1452" d="M29 0l485 1483h393l525 -1483h-347l-122 360h-494l-115 -360h-325zM283 1757q0 78 51 125t135 47q80 0 130 -47t50 -125q0 -77 -50 -123.5t-130 -46.5q-84 0 -135 46t-51 124zM522 612h375l-184 574h-8zM766 1757q0 78 50.5 125t133.5 47q82 0 131 -47t49 -125t-49 -124 t-131 -46q-84 0 -134 46t-50 124z" />
<glyph unicode="&#xc5;" horiz-adv-x="1452" d="M29 0l479 1468q-55 61 -55 156q0 119 73 183.5t183 64.5q111 0 184.5 -62t73.5 -176q0 -99 -56 -161l521 -1473h-347l-122 360h-494l-115 -360h-325zM522 612h375l-184 574h-8zM598 1636q0 -53 29.5 -79.5t81.5 -26.5q49 0 76.5 27t27.5 81q0 51 -27.5 77t-76.5 26 q-50 0 -80.5 -26.5t-30.5 -78.5z" />
<glyph unicode="&#xc6;" horiz-adv-x="2054" d="M27 0l723 1483h1194v-266h-625v-371h588v-256h-588v-324h663v-266h-978v586h-365l-279 -586h-333zM731 836h273v381h-89z" />
<glyph unicode="&#xc7;" horiz-adv-x="1423" d="M78 725q0 360 186.5 572t528.5 212q261 0 416 -131.5t167 -400.5l-289 -25q-13 157 -84.5 227t-214.5 70q-186 0 -285.5 -125t-99.5 -383q0 -266 91.5 -385.5t271.5 -119.5q149 0 220.5 68t100.5 198l285 -49q-13 -96 -51 -174.5t-91.5 -131.5t-122.5 -90.5t-140.5 -56 t-149.5 -23.5l-8 -69q174 -31 174 -189q0 -108 -74.5 -165.5t-193.5 -57.5q-92 0 -168 29l31 143q58 -14 98 -14q102 0 102 76q0 44 -31 58.5t-100 16.5l23 175q-592 49 -592 745z" />
<glyph unicode="&#xc8;" horiz-adv-x="1193" d="M152 0v1483h940v-264h-625v-349h588v-258h-588v-346h661v-266h-976zM289 1876h332l186 -287l-219 -16z" />
<glyph unicode="&#xc9;" horiz-adv-x="1193" d="M152 0v1483h940v-264h-625v-349h588v-258h-588v-346h661v-266h-976zM449 1589l186 287h332l-299 -303z" />
<glyph unicode="&#xca;" horiz-adv-x="1193" d="M152 0v1483h940v-264h-625v-349h588v-258h-588v-346h661v-266h-976zM270 1587l219 291h287l209 -291l-205 -12l-147 147l-154 -149z" />
<glyph unicode="&#xcb;" horiz-adv-x="1193" d="M152 0v1483h940v-264h-625v-349h588v-258h-588v-346h661v-266h-976zM203 1757q0 78 51 125t135 47q80 0 130 -47t50 -125q0 -77 -50 -123.5t-130 -46.5q-84 0 -135 46t-51 124zM686 1757q0 78 50.5 125t133.5 47q82 0 131.5 -47t49.5 -125t-49.5 -124t-131.5 -46 q-84 0 -134 46t-50 124z" />
<glyph unicode="&#xcc;" horiz-adv-x="618" d="M-31 1876h332l186 -287l-219 -16zM152 0v1483h315v-1483h-315z" />
<glyph unicode="&#xcd;" horiz-adv-x="618" d="M129 1589l186 287h332l-299 -303zM152 0v1483h315v-1483h-315z" />
<glyph unicode="&#xce;" horiz-adv-x="618" d="M-49 1587l219 291h287l209 -291l-205 -12l-148 147l-153 -149zM152 0v1483h315v-1483h-315z" />
<glyph unicode="&#xcf;" horiz-adv-x="618" d="M-117 1757q0 78 51.5 125t135.5 47q80 0 130 -47t50 -125q0 -77 -50 -123.5t-130 -46.5q-84 0 -135.5 46.5t-51.5 123.5zM152 0v1483h315v-1483h-315zM367 1757q0 78 50.5 125t133.5 47q82 0 131 -47t49 -125t-49 -124t-131 -46q-84 0 -134 46t-50 124z" />
<glyph unicode="&#xd0;" horiz-adv-x="1482" d="M14 625v264h138v594h520q374 0 554.5 -188t180.5 -531q0 -173 -46.5 -311.5t-139 -240.5t-241 -157t-343.5 -55h-485v625h-138zM467 254h156q126 0 216 33.5t143 99t77 154t24 207.5q0 137 -26.5 230.5t-82.5 148.5t-135.5 78.5t-193.5 23.5h-178v-340h350v-264h-350 v-371z" />
<glyph unicode="&#xd1;" horiz-adv-x="1525" d="M152 0v1483h376l562 -1051v1051h286v-1483h-364l-572 1047v-1047h-288zM406 1610q-17 133 39.5 214t162.5 81q57 0 113 -22t104.5 -44t85.5 -22q35 0 48.5 19.5t13.5 70.5l155 -9q15 -130 -32.5 -209t-153.5 -79q-60 0 -119 22.5t-108 45t-84 22.5t-50 -21t-8 -75z" />
<glyph unicode="&#xd2;" horiz-adv-x="1556" d="M78 735q0 167 46.5 307t135 244.5t227.5 163.5t314 59t308 -58t213 -161t119.5 -235t39.5 -291q0 -370 -180.5 -579.5t-532.5 -209.5q-179 0 -313.5 56t-215.5 159t-121 239t-40 306zM403 741q0 -499 377 -499q176 0 275.5 120t99.5 383q0 251 -93 374.5t-267 123.5 q-185 0 -288.5 -125.5t-103.5 -376.5zM459 1876h332l186 -287l-219 -16z" />
<glyph unicode="&#xd3;" horiz-adv-x="1556" d="M78 735q0 167 46.5 307t135 244.5t227.5 163.5t314 59t308 -58t213 -161t119.5 -235t39.5 -291q0 -370 -180.5 -579.5t-532.5 -209.5q-179 0 -313.5 56t-215.5 159t-121 239t-40 306zM403 741q0 -499 377 -499q176 0 275.5 120t99.5 383q0 251 -93 374.5t-267 123.5 q-185 0 -288.5 -125.5t-103.5 -376.5zM618 1589l187 287h332l-299 -303z" />
<glyph unicode="&#xd4;" horiz-adv-x="1556" d="M78 735q0 167 46.5 307t135 244.5t227.5 163.5t314 59t308 -58t213 -161t119.5 -235t39.5 -291q0 -370 -180.5 -579.5t-532.5 -209.5q-179 0 -313.5 56t-215.5 159t-121 239t-40 306zM403 741q0 -499 377 -499q176 0 275.5 120t99.5 383q0 251 -93 374.5t-267 123.5 q-185 0 -288.5 -125.5t-103.5 -376.5zM440 1587l219 291h287l209 -291l-205 -12l-147 147l-154 -149z" />
<glyph unicode="&#xd5;" horiz-adv-x="1556" d="M78 735q0 167 46.5 307t135 244.5t227.5 163.5t314 59t308 -58t213 -161t119.5 -235t39.5 -291q0 -370 -180.5 -579.5t-532.5 -209.5q-179 0 -313.5 56t-215.5 159t-121 239t-40 306zM403 741q0 -499 377 -499q176 0 275.5 120t99.5 383q0 251 -93 374.5t-267 123.5 q-185 0 -288.5 -125.5t-103.5 -376.5zM442 1610q-17 133 40 214t163 81q57 0 113 -22t104.5 -44t85.5 -22q35 0 48.5 19.5t13.5 70.5l155 -9q15 -130 -32.5 -209t-153.5 -79q-60 0 -119 22.5t-108 45t-84 22.5t-50 -21t-8 -75z" />
<glyph unicode="&#xd6;" horiz-adv-x="1556" d="M78 735q0 167 46.5 307t135 244.5t227.5 163.5t314 59t308 -58t213 -161t119.5 -235t39.5 -291q0 -370 -180.5 -579.5t-532.5 -209.5q-179 0 -313.5 56t-215.5 159t-121 239t-40 306zM373 1757q0 78 51 125t135 47q80 0 130 -47t50 -125q0 -77 -50 -123.5t-130 -46.5 q-84 0 -135 46t-51 124zM403 741q0 -499 377 -499q176 0 275.5 120t99.5 383q0 251 -93 374.5t-267 123.5q-185 0 -288.5 -125.5t-103.5 -376.5zM856 1757q0 78 50.5 125t133.5 47q82 0 131.5 -47t49.5 -125t-49.5 -124t-131.5 -46q-84 0 -134 46t-50 124z" />
<glyph unicode="&#xd7;" d="M209 457l203 200l-203 203l172 178l203 -202l202 202l172 -178l-202 -203l202 -200l-172 -178l-202 202l-203 -202z" />
<glyph unicode="&#xd8;" horiz-adv-x="1556" d="M78 735q0 167 46.5 307t135 244.5t227.5 163.5t314 59q79 0 147 -12l56 129h290l-94 -225q142 -95 211.5 -261t69.5 -376q0 -370 -180.5 -579.5t-532.5 -209.5q-76 0 -156 13l-55 -135h-293l94 229q-280 185 -280 653zM403 741q0 -231 82 -358l357 856q-28 4 -47 4 q-185 0 -288.5 -125.5t-103.5 -376.5zM719 244q20 -2 61 -2q176 0 275.5 120t99.5 383q0 226 -80 355z" />
<glyph unicode="&#xd9;" horiz-adv-x="1449" d="M133 543v940h318v-897q0 -182 60 -264t218 -82q153 0 211.5 77t58.5 263v903h316v-948q0 -286 -155 -423t-443 -137q-305 0 -444.5 137.5t-139.5 430.5zM383 1876h332l186 -287l-219 -16z" />
<glyph unicode="&#xda;" horiz-adv-x="1449" d="M133 543v940h318v-897q0 -182 60 -264t218 -82q153 0 211.5 77t58.5 263v903h316v-948q0 -286 -155 -423t-443 -137q-305 0 -444.5 137.5t-139.5 430.5zM559 1589l186 287h332l-299 -303z" />
<glyph unicode="&#xdb;" horiz-adv-x="1449" d="M133 543v940h318v-897q0 -182 60 -264t218 -82q153 0 211.5 77t58.5 263v903h316v-948q0 -286 -155 -423t-443 -137q-305 0 -444.5 137.5t-139.5 430.5zM365 1587l219 291h286l209 -291l-205 -12l-147 147l-154 -149z" />
<glyph unicode="&#xdc;" horiz-adv-x="1449" d="M133 543v940h318v-897q0 -182 60 -264t218 -82q153 0 211.5 77t58.5 263v903h316v-948q0 -286 -155 -423t-443 -137q-305 0 -444.5 137.5t-139.5 430.5zM297 1757q0 78 51 125t135 47q80 0 130.5 -47.5t50.5 -124.5t-50.5 -123.5t-130.5 -46.5q-84 0 -135 46t-51 124z M780 1757q0 78 51 125t134 47q82 0 131 -47t49 -125t-49 -124t-131 -46q-84 0 -134.5 46t-50.5 124z" />
<glyph unicode="&#xdd;" horiz-adv-x="1241" d="M-37 1483h346l326 -635h10l313 635h320l-483 -924v-559h-318v555zM451 1589l186 287h332l-299 -303z" />
<glyph unicode="&#xde;" horiz-adv-x="1271" d="M152 0v1483h313v-238h248q110 0 196.5 -25.5t141 -68.5t90.5 -102.5t50.5 -122t14.5 -133.5q0 -531 -579 -531h-162v-262h-313zM465 516h127q53 0 93 5.5t79 21.5t64 43.5t40 74t15 109.5q0 122 -70 171.5t-197 49.5h-151v-475z" />
<glyph unicode="&#xdf;" horiz-adv-x="1343" d="M117 0v1051q0 115 27 204.5t74.5 148.5t116.5 97.5t148.5 55t175.5 16.5q238 0 371 -103t133 -290q0 -73 -21 -134t-56 -101.5t-71.5 -67t-76.5 -41.5v-7q57 -12 101.5 -29t89.5 -48.5t74.5 -74t48 -108.5t18.5 -149q0 -90 -26.5 -168.5t-78.5 -141t-138.5 -99 t-197.5 -36.5q-240 0 -354 148l117 188q34 -43 86.5 -75.5t112.5 -32.5q167 0 167 237q0 71 -21.5 120t-61.5 75.5t-87 37.5t-108 11h-72v221h35q211 0 211 228q0 113 -54 166t-151 53q-110 0 -166.5 -60.5t-56.5 -220.5v-1071h-309z" />
<glyph unicode="&#xe0;" horiz-adv-x="1142" d="M70 260q0 68 20 123.5t53 93.5t82 67t101 46t115.5 27t120 13t120.5 3v39q0 51 -5 82.5t-20 59t-46.5 40t-80.5 12.5q-75 0 -110.5 -33.5t-50.5 -113.5l-263 51q26 157 133 238.5t318 81.5q217 0 322.5 -90t105.5 -287v-447q0 -45 13 -63.5t51 -18.5q19 0 63 13l8 -179 q-32 -16 -90 -28.5t-106 -12.5q-95 0 -148.5 31.5t-70.5 104.5q-107 -138 -318 -138q-76 0 -134.5 20t-92 49.5t-55 69.5t-28.5 75t-7 71zM236 1522h331l152 -332l-207 -19zM381 311q0 -116 125 -116q52 0 101.5 21t76.5 48v189h-49q-122 -3 -188 -34.5t-66 -107.5z" />
<glyph unicode="&#xe1;" horiz-adv-x="1142" d="M70 260q0 68 20 123.5t53 93.5t82 67t101 46t115.5 27t120 13t120.5 3v39q0 51 -5 82.5t-20 59t-46.5 40t-80.5 12.5q-75 0 -110.5 -33.5t-50.5 -113.5l-263 51q26 157 133 238.5t318 81.5q217 0 322.5 -90t105.5 -287v-447q0 -45 13 -63.5t51 -18.5q19 0 63 13l8 -179 q-32 -16 -90 -28.5t-106 -12.5q-95 0 -148.5 31.5t-70.5 104.5q-107 -138 -318 -138q-76 0 -134.5 20t-92 49.5t-55 69.5t-28.5 75t-7 71zM381 311q0 -116 125 -116q52 0 101.5 21t76.5 48v189h-49q-122 -3 -188 -34.5t-66 -107.5zM391 1190l154 332h329l-276 -351z" />
<glyph unicode="&#xe2;" horiz-adv-x="1142" d="M70 260q0 68 20 123.5t53 93.5t82 67t101 46t115.5 27t120 13t120.5 3v39q0 51 -5 82.5t-20 59t-46.5 40t-80.5 12.5q-75 0 -110.5 -33.5t-50.5 -113.5l-263 51q26 157 133 238.5t318 81.5q217 0 322.5 -90t105.5 -287v-447q0 -45 13 -63.5t51 -18.5q19 0 63 13l8 -179 q-32 -16 -90 -28.5t-106 -12.5q-95 0 -148.5 31.5t-70.5 104.5q-107 -138 -318 -138q-76 0 -134.5 20t-92 49.5t-55 69.5t-28.5 75t-7 71zM193 1190l215 336h294l207 -336l-204 -10l-150 192l-156 -194zM381 311q0 -116 125 -116q52 0 101.5 21t76.5 48v189h-49 q-122 -3 -188 -34.5t-66 -107.5z" />
<glyph unicode="&#xe3;" horiz-adv-x="1142" d="M70 260q0 68 20 123.5t53 93.5t82 67t101 46t115.5 27t120 13t120.5 3v39q0 51 -5 82.5t-20 59t-46.5 40t-80.5 12.5q-75 0 -110.5 -33.5t-50.5 -113.5l-263 51q26 157 133 238.5t318 81.5q217 0 322.5 -90t105.5 -287v-447q0 -45 13 -63.5t51 -18.5q19 0 63 13l8 -179 q-32 -16 -90 -28.5t-106 -12.5q-95 0 -148.5 31.5t-70.5 104.5q-107 -138 -318 -138q-76 0 -134.5 20t-92 49.5t-55 69.5t-28.5 75t-7 71zM193 1202q-17 134 40 215.5t162 81.5q57 0 113 -22.5t104.5 -45t85.5 -22.5q35 0 48.5 19.5t13.5 70.5l155 -8q15 -130 -32.5 -209.5 t-153.5 -79.5q-60 0 -119 22.5t-108 45t-84 22.5t-50 -21t-8 -75zM381 311q0 -116 125 -116q52 0 101.5 21t76.5 48v189h-49q-122 -3 -188 -34.5t-66 -107.5z" />
<glyph unicode="&#xe4;" horiz-adv-x="1142" d="M70 260q0 68 20 123.5t53 93.5t82 67t101 46t115.5 27t120 13t120.5 3v39q0 51 -5 82.5t-20 59t-46.5 40t-80.5 12.5q-75 0 -110.5 -33.5t-50.5 -113.5l-263 51q26 157 133 238.5t318 81.5q217 0 322.5 -90t105.5 -287v-447q0 -45 13 -63.5t51 -18.5q19 0 63 13l8 -179 q-32 -16 -90 -28.5t-106 -12.5q-95 0 -148.5 31.5t-70.5 104.5q-107 -138 -318 -138q-76 0 -134.5 20t-92 49.5t-55 69.5t-28.5 75t-7 71zM127 1391q0 78 51 125t135 47q80 0 130.5 -47.5t50.5 -124.5t-50.5 -123.5t-130.5 -46.5q-84 0 -135 46t-51 124zM381 311 q0 -116 125 -116q52 0 101.5 21t76.5 48v189h-49q-122 -3 -188 -34.5t-66 -107.5zM610 1391q0 78 51 125t134 47q82 0 131 -47t49 -125t-49 -124t-131 -46q-84 0 -134.5 46t-50.5 124z" />
<glyph unicode="&#xe5;" horiz-adv-x="1142" d="M70 260q0 68 20 123.5t53 93.5t82 67t101 46t115.5 27t120 13t120.5 3v39q0 51 -5 82.5t-20 59t-46.5 40t-80.5 12.5q-75 0 -110.5 -33.5t-50.5 -113.5l-263 51q26 157 133 238.5t318 81.5q217 0 322.5 -90t105.5 -287v-447q0 -45 13 -63.5t51 -18.5q19 0 63 13l8 -179 q-32 -16 -90 -28.5t-106 -12.5q-95 0 -148.5 31.5t-70.5 104.5q-107 -138 -318 -138q-76 0 -134.5 20t-92 49.5t-55 69.5t-28.5 75t-7 71zM324 1374q0 106 66 164.5t163 58.5q100 0 165.5 -56.5t65.5 -158.5t-63 -158.5t-168 -56.5q-103 0 -166 54.5t-63 152.5zM381 311 q0 -116 125 -116q52 0 101.5 21t76.5 48v189h-49q-122 -3 -188 -34.5t-66 -107.5zM461 1380q0 -44 24.5 -67t67.5 -23q41 0 65.5 23.5t24.5 68.5q0 42 -24.5 64t-65.5 22q-40 0 -66 -23.5t-26 -64.5z" />
<glyph unicode="&#xe6;" horiz-adv-x="1716" d="M70 260q0 69 19.5 125t51 94t80 66t99 44t115.5 25.5t121.5 12t125.5 2.5v43q0 51 -5 82.5t-20 59t-46.5 40t-80.5 12.5q-75 0 -110.5 -33.5t-50.5 -113.5l-263 51q26 157 133 238.5t318 81.5q213 0 303 -146q54 68 146.5 107t199.5 39q222 0 331.5 -131.5t109.5 -362.5 q0 -64 -7 -129h-649q1 -135 55 -193.5t160 -58.5q78 0 118 39t56 113l260 -64q-30 -152 -147.5 -240t-304.5 -88q-270 0 -397 160q-166 -160 -392 -160q-80 0 -141 20t-95.5 49.5t-56.5 70t-29 75t-7 70.5zM381 311q0 -116 125 -116q51 0 110 23t99 58q-27 74 -37 177h-43 q-122 -3 -188 -34.5t-66 -107.5zM995 653h332q3 114 -37 163.5t-119 49.5q-74 0 -124.5 -52t-51.5 -161z" />
<glyph unicode="&#xe7;" horiz-adv-x="1114" d="M70 516q0 275 142 424.5t402 149.5q194 0 312 -105.5t133 -298.5l-277 -41q-10 106 -48.5 156.5t-125.5 50.5q-48 0 -84 -13t-67 -45t-47.5 -93.5t-16.5 -151.5q0 -178 53.5 -255t157.5 -77q89 0 137.5 47t61.5 148l260 -50q-25 -179 -137 -275t-285 -110l-8 -69 q174 -31 174 -189q0 -108 -74.5 -165.5t-193.5 -57.5q-92 0 -168 29l30 143q58 -14 99 -14q102 0 102 76q0 44 -31 58.5t-100 16.5l23 177q-143 17 -239.5 90t-140.5 184.5t-44 259.5z" />
<glyph unicode="&#xe8;" horiz-adv-x="1120" d="M70 530q0 140 41 249t113 176t165 101t203 34q234 0 346.5 -130.5t112.5 -363.5q0 -74 -7 -139h-649q4 -129 57.5 -185.5t157.5 -56.5q78 0 118 39t56 113l260 -64q-30 -152 -147.5 -240t-304.5 -88q-115 0 -205.5 30.5t-149 81.5t-97 123t-54.5 151t-16 169zM266 1522 h332l152 -332l-207 -19zM399 653h332q0 112 -39 162.5t-117 50.5q-74 0 -124.5 -52t-51.5 -161z" />
<glyph unicode="&#xe9;" horiz-adv-x="1120" d="M70 530q0 140 41 249t113 176t165 101t203 34q234 0 346.5 -130.5t112.5 -363.5q0 -74 -7 -139h-649q4 -129 57.5 -185.5t157.5 -56.5q78 0 118 39t56 113l260 -64q-30 -152 -147.5 -240t-304.5 -88q-115 0 -205.5 30.5t-149 81.5t-97 123t-54.5 151t-16 169zM399 653 h332q0 112 -39 162.5t-117 50.5q-74 0 -124.5 -52t-51.5 -161zM422 1190l153 332h330l-276 -351z" />
<glyph unicode="&#xea;" horiz-adv-x="1120" d="M70 530q0 140 41 249t113 176t165 101t203 34q234 0 346.5 -130.5t112.5 -363.5q0 -74 -7 -139h-649q4 -129 57.5 -185.5t157.5 -56.5q78 0 118 39t56 113l260 -64q-30 -152 -147.5 -240t-304.5 -88q-115 0 -205.5 30.5t-149 81.5t-97 123t-54.5 151t-16 169zM223 1190 l215 336h295l207 -336l-205 -10l-149 192l-156 -194zM399 653h332q0 112 -39 162.5t-117 50.5q-74 0 -124.5 -52t-51.5 -161z" />
<glyph unicode="&#xeb;" horiz-adv-x="1120" d="M70 530q0 140 41 249t113 176t165 101t203 34q234 0 346.5 -130.5t112.5 -363.5q0 -74 -7 -139h-649q4 -129 57.5 -185.5t157.5 -56.5q78 0 118 39t56 113l260 -64q-30 -152 -147.5 -240t-304.5 -88q-115 0 -205.5 30.5t-149 81.5t-97 123t-54.5 151t-16 169zM158 1391 q0 78 51 125t135 47q80 0 130 -47t50 -125q0 -77 -50 -123.5t-130 -46.5q-84 0 -135 46t-51 124zM399 653h332q0 112 -39 162.5t-117 50.5q-74 0 -124.5 -52t-51.5 -161zM641 1391q0 78 50.5 125t133.5 47q82 0 131.5 -47t49.5 -125t-49.5 -124t-131.5 -46q-84 0 -134 46 t-50 124z" />
<glyph unicode="&#xec;" horiz-adv-x="548" d="M-41 1522h332l151 -332l-206 -19zM123 0v1067h309v-1067h-309z" />
<glyph unicode="&#xed;" horiz-adv-x="548" d="M115 1190l153 332h330l-276 -351zM123 0v1067h309v-1067h-309z" />
<glyph unicode="&#xee;" horiz-adv-x="548" d="M-84 1190l215 336h295l207 -336l-205 -10l-149 192l-156 -194zM123 0v1067h309v-1067h-309z" />
<glyph unicode="&#xef;" horiz-adv-x="548" d="M-150 1391q0 78 51.5 125t135.5 47q80 0 130 -47t50 -125q0 -77 -50 -123.5t-130 -46.5q-84 0 -135.5 46.5t-51.5 123.5zM123 0v1067h309v-1067h-309zM334 1391q0 78 50.5 125t133.5 47q82 0 131 -47t49 -125t-49 -124t-131 -46q-84 0 -134 46t-50 124z" />
<glyph unicode="&#xf0;" horiz-adv-x="1204" d="M63 510q0 88 18 166t55.5 144t91.5 114t130 75t168 27q128 0 246 -55l8 10q-30 78 -90 144t-132 108t-141.5 68.5t-133.5 36.5l110 249q195 -36 340 -127l221 144l136 -193l-170 -108q213 -249 213 -660q0 -154 -30.5 -275t-95 -213t-172.5 -141t-255 -49 q-257 0 -387 144t-130 391zM387 516q0 -326 207 -326q117 0 171 107.5t54 327.5q0 55 -10 133q-88 67 -205 67q-106 0 -161.5 -70t-55.5 -239z" />
<glyph unicode="&#xf1;" horiz-adv-x="1193" d="M117 0v1067h274l17 -106q140 129 340 129q175 0 256 -88t81 -273v-729h-309v676q0 86 -34 125t-107 39q-58 0 -115.5 -26t-93.5 -58v-756h-309zM231 1202q-17 133 40 215t163 82q57 0 113 -22.5t104.5 -45t85.5 -22.5q35 0 48.5 19.5t13.5 70.5l155 -8 q15 -130 -32.5 -209.5t-153.5 -79.5q-60 0 -119 22.5t-108 45t-84 22.5t-50 -21t-8 -75z" />
<glyph unicode="&#xf2;" horiz-adv-x="1202" d="M70 528q0 264 138 413t410 149q136 0 236.5 -39.5t160.5 -112.5t89 -169.5t29 -217.5q0 -272 -133 -424t-410 -152q-141 0 -243.5 41t-162 117t-87 173.5t-27.5 221.5zM297 1522h332l151 -332l-207 -19zM393 537q0 -179 48.5 -255.5t162.5 -76.5q105 0 156 77t51 259 q0 171 -48 243t-153 72q-108 0 -162.5 -75.5t-54.5 -243.5z" />
<glyph unicode="&#xf3;" horiz-adv-x="1202" d="M70 528q0 264 138 413t410 149q136 0 236.5 -39.5t160.5 -112.5t89 -169.5t29 -217.5q0 -272 -133 -424t-410 -152q-141 0 -243.5 41t-162 117t-87 173.5t-27.5 221.5zM393 537q0 -179 48.5 -255.5t162.5 -76.5q105 0 156 77t51 259q0 171 -48 243t-153 72 q-108 0 -162.5 -75.5t-54.5 -243.5zM453 1190l153 332h330l-277 -351z" />
<glyph unicode="&#xf4;" horiz-adv-x="1202" d="M70 528q0 264 138 413t410 149q136 0 236.5 -39.5t160.5 -112.5t89 -169.5t29 -217.5q0 -272 -133 -424t-410 -152q-141 0 -243.5 41t-162 117t-87 173.5t-27.5 221.5zM254 1190l215 336h295l207 -336l-205 -10l-150 192l-155 -194zM393 537q0 -179 48.5 -255.5 t162.5 -76.5q105 0 156 77t51 259q0 171 -48 243t-153 72q-108 0 -162.5 -75.5t-54.5 -243.5z" />
<glyph unicode="&#xf5;" horiz-adv-x="1202" d="M70 528q0 264 138 413t410 149q136 0 236.5 -39.5t160.5 -112.5t89 -169.5t29 -217.5q0 -272 -133 -424t-410 -152q-141 0 -243.5 41t-162 117t-87 173.5t-27.5 221.5zM254 1202q-17 133 40 215t163 82q57 0 113 -22.5t104.5 -45t85.5 -22.5q35 0 48 19.5t13 70.5l156 -8 q15 -130 -32.5 -209.5t-153.5 -79.5q-60 0 -119.5 22.5t-108.5 45t-84 22.5t-49.5 -21t-7.5 -75zM393 537q0 -179 48.5 -255.5t162.5 -76.5q105 0 156 77t51 259q0 171 -48 243t-153 72q-108 0 -162.5 -75.5t-54.5 -243.5z" />
<glyph unicode="&#xf6;" horiz-adv-x="1202" d="M70 528q0 264 138 413t410 149q136 0 236.5 -39.5t160.5 -112.5t89 -169.5t29 -217.5q0 -272 -133 -424t-410 -152q-141 0 -243.5 41t-162 117t-87 173.5t-27.5 221.5zM188 1391q0 78 51.5 125t135.5 47q80 0 130 -47t50 -125q0 -77 -50 -123.5t-130 -46.5 q-84 0 -135.5 46.5t-51.5 123.5zM393 537q0 -179 48.5 -255.5t162.5 -76.5q105 0 156 77t51 259q0 171 -48 243t-153 72q-108 0 -162.5 -75.5t-54.5 -243.5zM672 1391q0 78 50.5 125t133.5 47q82 0 131 -47t49 -125t-49 -124t-131 -46q-84 0 -134 46t-50 124z" />
<glyph unicode="&#xf7;" d="M186 535v245h793v-245h-793zM416 317q0 69 41.5 110.5t120.5 41.5t120 -41.5t41 -110.5q0 -72 -40.5 -111.5t-120.5 -39.5q-81 0 -121.5 39t-40.5 112zM416 997q0 69 41.5 110.5t120.5 41.5t120 -41.5t41 -110.5q0 -72 -40.5 -110.5t-120.5 -38.5q-162 0 -162 149z" />
<glyph unicode="&#xf8;" horiz-adv-x="1202" d="M70 528q0 264 138 413t410 149q58 0 107 -9l53 119h215l-80 -180q220 -126 220 -469q0 -272 -133 -424t-410 -152q-58 0 -133 11l-58 -133h-217l88 202q-200 130 -200 473zM393 537q0 -101 15 -172l217 491h-15q-108 0 -162.5 -75.5t-54.5 -243.5zM555 209q32 -4 49 -4 q105 0 156 77t51 259q0 119 -25 192z" />
<glyph unicode="&#xf9;" horiz-adv-x="1183" d="M113 332v735h309v-674q0 -87 31 -126.5t104 -39.5q55 0 111 26t92 58v756h309v-1067h-266l-23 115q-122 -138 -340 -138q-327 0 -327 355zM272 1522h332l152 -332l-207 -19z" />
<glyph unicode="&#xfa;" horiz-adv-x="1183" d="M113 332v735h309v-674q0 -87 31 -126.5t104 -39.5q55 0 111 26t92 58v756h309v-1067h-266l-23 115q-122 -138 -340 -138q-327 0 -327 355zM428 1190l154 332h329l-276 -351z" />
<glyph unicode="&#xfb;" horiz-adv-x="1183" d="M113 332v735h309v-674q0 -87 31 -126.5t104 -39.5q55 0 111 26t92 58v756h309v-1067h-266l-23 115q-122 -138 -340 -138q-327 0 -327 355zM229 1190l215 336h295l207 -336l-205 -10l-149 192l-156 -194z" />
<glyph unicode="&#xfc;" horiz-adv-x="1183" d="M113 332v735h309v-674q0 -87 31 -126.5t104 -39.5q55 0 111 26t92 58v756h309v-1067h-266l-23 115q-122 -138 -340 -138q-327 0 -327 355zM164 1391q0 78 51 125t135 47q80 0 130 -47t50 -125q0 -77 -50 -123.5t-130 -46.5q-84 0 -135 46t-51 124zM647 1391 q0 78 50.5 125t133.5 47q82 0 131.5 -47t49.5 -125t-49.5 -124t-131.5 -46q-84 0 -134 46t-50 124z" />
<glyph unicode="&#xfd;" horiz-adv-x="1077" d="M-8 1067h334l223 -743h6l215 743h317q-256 -717 -423 -1171q-69 -194 -156 -273.5t-246 -79.5q-61 0 -129.5 13.5t-103.5 31.5l22 224q105 -33 162 -33q55 0 91.5 27t60.5 88l32 83zM377 1190l153 332h330l-276 -351z" />
<glyph unicode="&#xfe;" horiz-adv-x="1212" d="M121 -434v1980h303v-575q122 119 317 119q86 0 156 -29t125.5 -89.5t86 -166t30.5 -248.5q0 -154 -34 -269t-95 -182t-137 -99t-168 -32q-168 0 -283 103v-512h-301zM428 295q28 -26 81 -49t105 -23q201 0 201 326q0 158 -46 226.5t-142 68.5q-50 0 -104.5 -24.5 t-94.5 -57.5v-467z" />
<glyph unicode="&#xff;" horiz-adv-x="1077" d="M-8 1067h334l223 -743h6l215 743h317q-256 -717 -423 -1171q-69 -194 -156 -273.5t-246 -79.5q-61 0 -129.5 13.5t-103.5 31.5l22 224q105 -33 162 -33q55 0 91.5 27t60.5 88l32 83zM113 1391q0 78 51 125t135 47q80 0 130 -47t50 -125q0 -77 -50 -123.5t-130 -46.5 q-84 0 -135 46t-51 124zM596 1391q0 78 50.5 125t133.5 47q82 0 131.5 -47t49.5 -125t-49.5 -124t-131.5 -46q-84 0 -134 46t-50 124z" />
<glyph unicode="&#x152;" horiz-adv-x="2197" d="M78 735q0 166 46.5 307t134.5 245t223.5 163t303.5 59q133 0 229 -39.5t171 -117.5v131h907v-264h-625v-349h588v-258h-588v-348h664v-264h-946v137q-71 -75 -182.5 -118.5t-235.5 -43.5q-179 0 -313.5 56t-215.5 159t-121 239t-40 306zM403 741q0 -501 377 -501 q172 0 272 118t103 369q6 516 -360 516q-185 0 -288.5 -125.5t-103.5 -376.5z" />
<glyph unicode="&#x153;" horiz-adv-x="1841" d="M70 528q0 260 138.5 411t389.5 151q134 0 222 -45t151 -134q58 82 150.5 130.5t207.5 48.5q219 0 331 -132t112 -360q0 -76 -7 -141h-649q4 -129 57.5 -185.5t157.5 -56.5q145 0 174 152l260 -64q-30 -152 -147.5 -240t-300.5 -88q-245 0 -359 185q-126 -185 -385 -185 q-132 0 -230 41t-157 116.5t-87.5 174t-28.5 221.5zM393 537q0 -179 48.5 -255.5t162.5 -76.5q104 0 155.5 78.5t51.5 255.5q0 173 -48 245t-153 72q-108 0 -162.5 -75.5t-54.5 -243.5zM1120 653h332q3 213 -156 213q-74 0 -124.5 -51.5t-51.5 -161.5z" />
<glyph unicode="&#x178;" horiz-adv-x="1241" d="M-37 1483h346l326 -635h10l313 635h320l-483 -924v-559h-318v555zM205 1757q0 78 51 125t135 47q80 0 130 -47t50 -125q0 -77 -50 -123.5t-130 -46.5q-84 0 -135 46t-51 124zM688 1757q0 78 50.5 125t133.5 47q82 0 131.5 -47t49.5 -125t-49.5 -124t-131.5 -46 q-84 0 -134 46t-50 124z" />
<glyph unicode="&#x2c6;" horiz-adv-x="1024" d="M152 1190l215 336h295l206 -336l-204 -10l-150 192l-156 -194z" />
<glyph unicode="&#x2dc;" horiz-adv-x="1024" d="M152 1202q-17 134 40 215.5t162 81.5q57 0 113 -22.5t104.5 -45t85.5 -22.5q35 0 48.5 19.5t13.5 70.5l155 -8q15 -130 -32.5 -209.5t-153.5 -79.5q-60 0 -119 22.5t-108 45t-84 22.5t-50 -21t-8 -75z" />
<glyph unicode="&#x2000;" horiz-adv-x="964" />
<glyph unicode="&#x2001;" horiz-adv-x="1929" />
<glyph unicode="&#x2002;" horiz-adv-x="964" />
<glyph unicode="&#x2003;" horiz-adv-x="1929" />
<glyph unicode="&#x2004;" horiz-adv-x="643" />
<glyph unicode="&#x2005;" horiz-adv-x="482" />
<glyph unicode="&#x2006;" horiz-adv-x="321" />
<glyph unicode="&#x2007;" horiz-adv-x="321" />
<glyph unicode="&#x2008;" horiz-adv-x="241" />
<glyph unicode="&#x2009;" horiz-adv-x="385" />
<glyph unicode="&#x200a;" horiz-adv-x="107" />
<glyph unicode="&#x2010;" horiz-adv-x="641" d="M41 465v264h555v-264h-555z" />
<glyph unicode="&#x2011;" horiz-adv-x="641" d="M41 465v264h555v-264h-555z" />
<glyph unicode="&#x2012;" horiz-adv-x="641" d="M41 465v264h555v-264h-555z" />
<glyph unicode="&#x2013;" horiz-adv-x="1024" d="M0 461v227h1024v-227h-1024z" />
<glyph unicode="&#x2014;" horiz-adv-x="2048" d="M0 461v227h2048v-227h-2048z" />
<glyph unicode="&#x2018;" horiz-adv-x="446" d="M39 1118l182 502l223 -25l-108 -477h-297z" />
<glyph unicode="&#x2019;" horiz-adv-x="446" d="M37 1108l108 477h297l-182 -502z" />
<glyph unicode="&#x201a;" horiz-adv-x="438" d="M4 -283l109 478h297l-183 -502z" />
<glyph unicode="&#x201c;" horiz-adv-x="821" d="M39 1118l182 502l223 -25l-108 -477h-297zM416 1118l182 502l223 -25l-108 -477h-297z" />
<glyph unicode="&#x201d;" horiz-adv-x="821" d="M37 1108l108 477h297l-182 -502zM410 1108l108 477h297l-182 -502z" />
<glyph unicode="&#x201e;" horiz-adv-x="817" d="M4 -283l109 478h297l-183 -502zM381 -283l108 478h297l-182 -502z" />
<glyph unicode="&#x2022;" horiz-adv-x="942" d="M162 571q0 149 79 225t230 76q152 0 230.5 -75.5t78.5 -225.5q0 -299 -309 -299q-151 0 -230 75t-79 224z" />
<glyph unicode="&#x2026;" horiz-adv-x="1478" d="M68 156q0 182 190 182q191 0 191 -182q0 -88 -48 -134.5t-143 -46.5q-190 0 -190 181zM555 156q0 182 190 182q191 0 191 -182q0 -88 -48 -134.5t-143 -46.5q-190 0 -190 181zM1032 156q0 182 191 182q190 0 190 -182q0 -181 -190 -181q-191 0 -191 181z" />
<glyph unicode="&#x202f;" horiz-adv-x="385" />
<glyph unicode="&#x2039;" horiz-adv-x="571" d="M76 526l182 310h250l-180 -301l172 -324h-248z" />
<glyph unicode="&#x203a;" horiz-adv-x="571" d="M63 836h250l183 -314l-179 -311h-245l172 313z" />
<glyph unicode="&#x205f;" horiz-adv-x="482" />
<glyph unicode="&#x20ac;" horiz-adv-x="1320" d="M20 481l31 181h144v126h-127l30 181h115q46 262 194.5 402t385.5 140q465 0 487 -487l-270 -29q-10 145 -59.5 203.5t-159.5 58.5q-115 0 -180.5 -72t-90.5 -216h398l-31 -181h-383v-126h366l-30 -181h-316q26 -129 87 -189.5t165 -60.5q112 0 163.5 57t76.5 179l258 -45 q-12 -101 -49.5 -180t-88 -128t-115 -81.5t-128 -45t-131.5 -12.5q-237 0 -373.5 126t-177.5 380h-191z" />
<glyph unicode="&#x2122;" horiz-adv-x="1753" d="M84 1343v140h649v-140h-244v-630h-163v630h-242zM831 715v768h189l209 -582l211 582h178v-770h-150v489l-182 -489h-129l-178 491v-489h-148z" />
<glyph unicode="&#x25fc;" horiz-adv-x="1064" d="M0 0v1065h1065v-1065h-1065z" />
</font>
</defs>
</svg>
