<svg id="Layer_1" xmlns="http://www.w3.org/2000/svg" viewBox="0 0 446.8 84.9"><style>.st0{fill:#fff}</style><path class="st0" d="M125.5 66.3L117 31.5l-9.7 34.8h-9.7l-12.4-38c-.4-1.1-.8-1.2-1.8-1.5l-3.7-.8 1.1-4.8h17.7V26l-5.6.7 9.8 31.5 10.1-35.8h9.2l8.5 35.7 9.8-31.4-5.7-.7 1-4.8h16.6V26l-3.2.5c-1.5.3-1.8.6-2.2 1.8l-11.9 38h-9.4zM187 43.6c0-11.5-4.2-16.6-12.7-16.6-8.6 0-13.6 5.1-13.6 16.7 0 11.7 4.5 17.3 13.2 17.3 8.5 0 13.1-5.4 13.1-17.4m-34.6 0c0-13.8 7-23.3 22-23.3s20.8 9.6 20.8 22.7c0 14.8-6.7 24.3-21.7 24.3-15.2.1-21.1-9.8-21.1-23.7M199.4 66.3v-4.8l4.4-.5c1.2-.2 1.4-.4 1.4-1.8V29.3c0-1-.3-1.6-1.1-1.8l-5-1.7.8-4.7h11.5l.9 6.1.3.1c2.9-3.3 7.2-7 13.2-7 2 0 4.7.4 6.3.8v13.3l-6.2-.3-1.1-6.1c-.1-.7-.3-.9-1.1-.9-4 0-8.4 3.6-10.5 5.5V59c0 1.4.1 1.7 1.4 1.8l8.1.7v4.7h-23.3zM234.6 66.3v-4.8l5.4-.5c1.2-.1 1.4-.4 1.4-1.8v-51c0-1-.3-1.6-1.1-1.8L235 4.7l.8-4.7h13.6v59.2c0 1.4.1 1.6 1.4 1.8l5.3.6v4.7h-21.5zM290.2 31.6c-2.6-2.2-7.4-4.7-12-4.7-8.3 0-11.5 7.2-11.5 17.7 0 12.2 4.1 16.2 10.3 16.2 5.2 0 9.4-3.4 13.3-7.3V31.6zm1.5 34.7l-.7-5.8-.4-.1c-4 3.9-8.6 6.9-15.5 6.9-10 0-16.6-6.5-16.6-22.7 0-17.3 7.8-24.4 18.4-24.4 5.3 0 10 1.8 13.4 4.2V8.1c0-.9-.4-1.5-1.1-1.8L284 4.7l.8-4.7h13.4v59.2c0 1.4.1 1.6 1.4 1.8l4.5.6v4.7h-12.4zM322.4 55.1c3 2.9 7.4 5.7 12 5.7 8.4 0 11.5-6.9 11.5-18 0-11.9-4.7-15.7-10.1-15.7-5.6 0-10.9 3.4-13.4 5.4v22.6zm-13 29.8v-4.8l3.6-.5c1.2-.2 1.5-.4 1.5-1.8V29.3c0-1-.3-1.6-1.1-1.8l-5-1.7.8-4.7h11.6l.8 5.1.3.1c4.8-3.6 9.7-6.1 15.7-6.1 9.8 0 16.5 6.3 16.5 21.8 0 13.2-4.5 25.3-18.3 25.3-5 0-9.2-1.2-13.4-4.8v15.2c0 1.4.1 1.7 1.4 1.8l8.3.7v4.7h-22.7zM386.2 46.1l-9.9.9c-7.6.7-9.7 2.9-9.7 7.5 0 4.7 2 6.7 6.1 6.7 5.2 0 10.7-4.2 13.4-6.8v-8.3zm1.5 20.2l-.8-5.7-.3-.1c-4.2 3.9-9.1 6.8-15.9 6.8-11 0-12.4-7.6-12.4-12 0-8.8 5.4-12.9 16-13.8l11.9-1v-4.7c0-6.4-1.2-9.6-8.9-9.6-5.4 0-9.2.2-9.3 6.8l-7.6-.8c0-10.8 10-12 17-12 12.5 0 16.7 3.5 16.7 15.6v23.3c0 1.4.1 1.6 1.4 1.8l4.5.6v4.7h-12.3zM405 84.9v-4.8l6.3-.8c1.1-.1 1.4-.6 1.9-1.8l5.1-11.7-15.8-37.4c-.4-1.1-.8-1.2-1.8-1.5l-3.6-.9 1-4.8h18.2V26l-5.8.7 11.7 29.5 12.2-29.5-6-.7 1-4.8h17.4V26l-3 .4c-1.1.2-1.8.5-2.2 1.5l-21.3 51.4s-1 2.4-1.5 3.4c-.5 1.2-1.8 2.2-3.5 2.2H405zM60.5 63.1c-.6.9-1.3 1.8-2.1 2.7-1.7 1.9-3.7 3.7-5.9 5.2-2.8 1.9-5.7 3.4-8.7 4.5-2.6.9-4.9 1.4-6.9 1.5h-.7c-1 0-1.7-.1-2.1-.4l-.2-.1-.2-.2v-.1c0-.1 0-.3.1-.5.2-.5.5-.9.9-1.4.1-.1.3-.3.4-.5 1.5-.4 3-.9 4.7-1.4 1.5.3 3.1.4 4.5.3 1.8-.2 3.5-.7 5-1.5 1.8-1 3.4-2.3 4.7-3.9.8-1.1 1.5-2.2 2-3.5 2.7-2.1 5-4.3 6.8-6.5l.9-1.2c-.7 2.4-1.7 4.8-3.2 7m-10.3 4.5c.6-.3 1.1-.7 1.7-1-.8 1-1.8 1.9-2.8 2.6-1.4.9-2.9 1.6-4.4 1.9-.7.1-1.3.2-2 .3 2.5-1.1 5.1-2.4 7.5-3.8m18.3-25.1c0-2.9-.7-5.7-2.1-8.3-1.2-2.3-3-4.5-5.2-6.5-.5-2.7-1.9-5.2-4-7.5-1.7-1.8-3.8-3.4-6.4-4.8-2-1.1-4.2-2-6.5-2.7-1.9-.6-3.8-.9-5.6-1.1-1.7-.2-3.1-.1-4.4.1-1.3.3-2.5.7-3.6 1.3l-.2.1c-1.5-.2-3-.2-4.4-.1h-.4c-1.4.1-4.3.5-4.1 1.9 0 0 0 .8 1.8 1.4l2.5-1.5c-.2 0-.4-.1-.6-.1.8-.1 1.6-.2 2.2-.2h.5c-.2.1-.3.2-.5.3l-.8.5c-1.5.9-2 1.3-3.6 2.2-1 .6-1.9 1.2-2.9 1.7-1.9 1-3.8 2-5.8 3-1.6.7-3.2 1.5-5.3 2.4l-.2.1c-.5.2-1 .4-1.4.6h-.1c-.5.2-1.1.5-1.4 1.1l-.1.4v.4c0 .1.1.2.1.2l.3.3.3.2h.1c.3.1.7.1 1.1.1h1.8c.7 0 1.4-.1 2-.1 3.3-.1 6.3-.1 9.2 0 2.8.1 5.6.4 8.4.7l4.2.6c.9-.8 1.6-1.4 2.1-2-2.9-.6-5.8-1-8.6-1.3-2.9-.3-6-.5-9.1-.5h-1.1c-1.5 0-3.1 0-4.6.1 1.5-.7 2.8-1.4 4.1-2 1.9-1 3.8-2.1 5.7-3.3 1.4-.9 2.9-1.9 4.6-3.1l.3-.2c2 .4 4.4.8 6.8 1.3l5.1 1.2c-.7-1.7-2.8-2.7-4-3.2-1.7-.3-3.5-.7-5.6-1 .5-.4 1-.7 1.5-.9 1.7.2 3.1.5 4.4 1 1 .4 1.8.8 2.5 1.3.1.1.3.2.4.3 1.2 1 1.9 2.3 1.9 3.6.1 1.1-.2 2.3-.8 3.5-.3.7-.8 1.4-1.3 2.1-.1.2-1 1.5-3 3.2-1.9 1.8-4.2 3.4-7 5.1-1 .6-1.9 1.1-2.9 1.6-1.2.6-2.4 1.2-3.4 1.6-1.6.7-4.3 1.9-7.7 2.9-1.8.5-3.5 1-5.2 1.3-1.3.3-2.9.5-4.5.6 1.8-.8 3.8-1.3 5.9-1.6 4-.9 7.4-2.2 9.6-3.2-2.1 0-4.2.1-6.4.3-3.6.4-6.5.9-9.1 1.8-1.5.5-3.5 1.3-4 2.6-.1.7 0 1.2.2 1.7.4.8 1.2 1.2 2.5 1.4 1 .1 2.1.1 3.6-.1 2.7-.3 5.6-.9 8.9-2 2.9-.9 5.5-2 8-3.1 2.8.1 5.6.4 8.3.9 2.9.5 5.4 1.2 7.8 2.1 2.7 1 5 2.1 6.9 3.4.7-.5 1.3-1 1.8-1.4-.1 0-.1-.1-.2-.1-2.4-1.6-5.2-3-8.2-4.1-2.5-.9-5.2-1.6-8.2-2.2-1.4-.3-2.8-.5-4.3-.6 2.4-1.3 4.5-2.6 6.4-4.1 1.7-1.3 3.1-2.6 4.4-3.9 3.4.9 6.3 1.8 8.9 2.9 3.1 1.3 5.8 2.8 8.1 4.5l.2.1c.5-.7.9-1.5 1.2-2.1-2.1-1.5-4.4-2.8-6.9-4-2.8-1.3-5.9-2.4-9.3-3.3-.1 0-.2-.1-.4-.1 1.5-2.1 2.4-4.1 2.6-6 .1-.6.1-1.1 0-1.7 2.9.9 5.7 2 8.3 3.2 2.6 1.2 4.8 2.5 6.7 4l.1.1c-.5-2.1-1.6-3.7-2.2-4.4-1.2-.7-2.5-1.3-3.9-2-2.4-1.1-5.1-2.1-8-3-.6-.2-1.3-.4-1.9-.5h-.1c-.9-1.6-2.3-2.5-3.4-3.1-1.2-.6-2.6-1.1-4.2-1.4.7-.1 1.3-.2 2-.2h.2c.6 0 1.3 0 2 .1.2 0 .3 0 .5.1 1.7.2 3.4.6 5.3 1.2 2.2.7 4.3 1.6 6.1 2.7 2.3 1.3 4.2 2.8 5.7 4.5.5.6 1 1.2 1.4 1.8.1.1.2.2.2.4 0 0 0 .1.1.1.7 1.2 1.4 2.8 1.5 4.7.2 2-.2 4-.8 5.6 0 .1-.8 2.3-2.2 4.3-1.4 2.1-3.3 4.2-5.6 6.2-.5.5-2 1.8-4.1 3.2-2 1.4-4.1 2.7-6.3 3.9-1.7 1-3.5 1.8-5.7 2.8-.9.4-2.2.9-3.7 1.4-2.4.9-4.8 1.6-7.2 2.2-3.5.8-6.6 1.3-9.6 1.5-1.2.1-2.3.1-3.4 0-1.6-.1-3.3-.3-4.3-1.2l-.2-.2v-.1-.1c.2-.6.7-1 1.2-1.4.7-.5 1.5-.9 2.5-1.3 2.3-.9 4.9-1.5 7.9-1.8 2.8-.2 5.7-.1 8.4.3 1.4.2 2.8.6 4.2 1 1-.3 2-.7 2.7-1-1.7-.7-3.6-1.3-5.6-1.8-2.8-.6-5.8-.8-8.8-.7-3.1.1-6 .6-8.6 1.4-2.1.7-4.4 1.6-5.8 3.4-.6.8-.9 1.7-.7 2.7.2 1.2 1.2 2 1.7 2.3 1.3.8 2.9 1.2 4 1.3 1.2.2 2.5.3 3.9.3h.7c2.9-.1 6-.5 9.7-1.3 3.1-.7 6.3-1.6 9.6-2.9.9-.4 1.9-.7 2.8-1.1 1.5 1 2.6 2.1 3.3 3.3.7 1.2 1 2.3 1 3.5 0 1.1-.3 2.2-.9 3.2-.1.3-.3.5-.5.8.7-.2 1.4-.5 2.1-.8l.3-.6c.5-1.3.7-2.7.5-4-.2-1.5-.9-3-2-4.3-.5-.7-1.2-1.3-1.9-1.9 3.2-1.5 6.1-3.1 8.7-4.8 1.3-.9 2.6-1.8 3.8-2.7 2 1.9 3.5 4 4.2 6.3.4 1.2.6 2.4.6 3.7.8-.7 1.5-1.3 2-1.8-.2-1.8-.8-3.5-1.8-5.2-.8-1.5-2-2.9-3.4-4.3 2.7-2.3 4.9-4.7 6.5-7.2.1-.1.2-.3.3-.4 2 2 3.5 4.2 4.5 6.4v.1c.2.4.3.9.5 1.3.7-1.6 1-3 1.1-3.9-.8-1.6-1.9-3.1-3.1-4.4-.5-.6-1.1-1.1-1.7-1.7 1.1-2.3 1.8-4.5 2-6.6.5.6 1 1.2 1.4 1.8 1.5 2.3 2.5 4.7 2.7 7 .1.9.1 1.7.1 2.6 0 .1 0 1-.3 2.4 0 .2-.1.5-.2.7-.3 1.1-.8 2.5-1.5 4-.1.1-.1.3-.2.4-.1.1-.1.3-.2.4-1.3 2.4-3.1 4.8-5.4 7-.3.3-.6.6-1 .9-.8.8-2 1.8-3.1 2.6-2.2 1.7-4.6 3.2-7.1 4.5-1.9 1-3.9 2-6 2.8-2.2.9-4.3 1.6-5.9 2-3 .8-5.9 1.4-8.7 1.7-2.6.2-4.6.2-6.5-.1-1.2-.2-2.1-.5-2.9-.9-.2-.1-.4-.3-.5-.4 0-.1-.1-.1-.1-.2v-.1-.1c.4-1 1.7-1.5 3-1.9 1.2-.4 2.7-.6 4.3-.6h.2c1.5 0 3 .2 4.6.6 1.5.3 3 .8 4.3 1.3.1 0 .1.1.2.1.6-.1 1.3-.3 2.2-.6-.1 0-.2-.1-.4-.1-.6-.2-1.2-.5-1.8-.7-1.7-.7-3.1-1.1-4.5-1.5-1.7-.4-3.4-.7-5-.7-1.7-.1-3.4.1-5 .5-1.7.4-2.9 1.1-3.8 1.9-.6.6-.9 1.4-.9 2.2 0 .8.4 1.6 1.1 2.2 1.8 1.6 4.7 2 7 2.1 2.9.2 6-.1 9.4-.7.4-.1.9-.2 1.3-.3-.3.5-.6 1-.7 1.6-.1.9.4 1.8 1.4 2.3.9.5 2.1.8 3.7.8h.9c2.5-.1 5.1-.7 8-1.8 2.9-1 5.6-2.5 8.2-4.2 2.3-1.6 4.5-3.5 6.3-5.6 1.9-2.2 3.5-4.6 4.5-7.1 1.1-2.5 1.6-5.3 1.5-8 0-.4 0-.8-.1-1.2 1.8-2.9 2.5-5.9 2.5-8.8"/></svg>