<svg id="mermaidChart33" width="100%" xmlns="http://www.w3.org/2000/svg" height="100%" style="max-width:750px;" viewBox="-50 -10 750 480"><style type="text/css" title="mermaid-svg-internal-css">/*  */
svg {font-family: "Helvetica Neue", Helvetica, Arial, sans-serif;}
.actor { stroke: #f01e14; stroke-width: 2; fill: #fff;}
text.actor { fill: rgb(0, 0, 0); stroke: none;}
.actor-line { stroke: grey;}
.messageLine0 { }
.messageLine0, .messageLine1 { stroke-width: 1.5; stroke: rgb(51, 51, 51);}
#arrowhead { fill: rgb(51, 51, 51);}
#crosshead path { fill: rgb(51, 51, 51) !important; stroke: rgb(51, 51, 51) !important;}
.messageText { fill: rgb(51, 51, 51); stroke: none;}
.note { fill: #eee; color: #fff; }
.noteText { fill: rgb(0, 0, 0); stroke: none; font-size: 14px;}
* { -webkit-tap-highlight-color: rgba(0, 0, 0, 0);}
*, ::after, ::before { box-sizing: border-box;}
/*  */
</style><g></g><g><line id="actor3" x1="75" y1="5" x2="75" y2="469" class="actor-line" stroke-width="0.5px" stroke="#999"></line><rect x="0" y="0" fill="#eaeaea" stroke="#666" width="150" height="65" rx="3" ry="3" class="actor"></rect><text x="75" y="32.5" dominant-baseline="central" alignment-baseline="central" class="actor" style="text-anchor: middle;"><tspan x="75" dy="0">Alice</tspan></text></g><g><line id="actor4" x1="275" y1="5" x2="275" y2="469" class="actor-line" stroke-width="0.5px" stroke="#999"></line><rect x="200" y="0" fill="#eaeaea" stroke="#666" width="150" height="65" rx="3" ry="3" class="actor"></rect><text x="275" y="32.5" dominant-baseline="central" alignment-baseline="central" class="actor" style="text-anchor: middle;"><tspan x="275" dy="0">Bob</tspan></text></g><g><line id="actor5" x1="475" y1="5" x2="475" y2="469" class="actor-line" stroke-width="0.5px" stroke="#999"></line><rect x="400" y="0" fill="#eaeaea" stroke="#666" width="150" height="65" rx="3" ry="3" class="actor"></rect><text x="475" y="32.5" dominant-baseline="central" alignment-baseline="central" class="actor" style="text-anchor: middle;"><tspan x="475" dy="0">John</tspan></text></g><defs><marker id="arrowhead" refX="5" refY="2" markerWidth="6" markerHeight="4" orient="auto"><path d="M 0,0 V 4 L6,2 Z"></path></marker></defs><defs><marker id="crosshead" markerWidth="15" markerHeight="8" orient="auto" refX="16" refY="4"><path fill="black" stroke="#000000" stroke-width="1px" d="M 9,2 V 6 L16,4 Z" style="stroke-dasharray: 0, 0;"></path><path fill="none" stroke="#000000" stroke-width="1px" d="M 0,1 L 6,7 M 6,1 L 0,7" style="stroke-dasharray: 0, 0;"></path></marker></defs><g><text x="175" y="93" class="messageText" style="text-anchor: middle;">Hello Bob, how are you?</text><line x1="75" y1="100" x2="275" y2="100" class="messageLine0" stroke-width="2" stroke="black" marker-end="url(#arrowhead)" style="fill: none;"></line></g><g><text x="375" y="128" class="messageText" style="text-anchor: middle;">How about you John?</text><line x1="275" y1="135" x2="475" y2="135" class="messageLine1" stroke-width="2" stroke="black" marker-end="url(#arrowhead)" style="stroke-dasharray: 3, 3; fill: none;"></line></g><g><text x="175" y="163" class="messageText" style="text-anchor: middle;">I am good thanks!</text><line x1="275" y1="170" x2="75" y2="170" class="messageLine1" stroke-width="2" stroke="black" marker-end="url(#crosshead)" style="stroke-dasharray: 3, 3; fill: none;"></line></g><g><text x="375" y="198" class="messageText" style="text-anchor: middle;">I am good thanks!</text><line x1="275" y1="205" x2="475" y2="205" class="messageLine0" stroke-width="2" stroke="black" marker-end="url(#crosshead)" style="fill: none;"></line></g><g><rect x="500" y="215" fill="#EDF2AE" stroke="#666" width="150" height="99" rx="0" ry="0" class="note"></rect><text x="516" y="243" fill="black" class="noteText"><tspan x="516">Bob thinks a long</tspan><tspan dy="21" x="516">long time, so long</tspan><tspan dy="21" x="516">that the text does</tspan><tspan dy="21" x="516">not fit on a row.</tspan></text></g><g><text x="175" y="342" class="messageText" style="text-anchor: middle;">Checking with John...</text><line x1="275" y1="349" x2="75" y2="349" class="messageLine1" stroke-width="2" stroke="black" style="stroke-dasharray: 3, 3; fill: none;"></line></g><g><text x="275" y="377" class="messageText" style="text-anchor: middle;">Yes... John, how are you?</text><line x1="75" y1="384" x2="475" y2="384" class="messageLine0" stroke-width="2" stroke="black" style="fill: none;"></line></g><g><rect x="0" y="404" fill="#eaeaea" stroke="#666" width="150" height="65" rx="3" ry="3" class="actor"></rect><text x="75" y="436.5" dominant-baseline="central" alignment-baseline="central" class="actor" style="text-anchor: middle;"><tspan x="75" dy="0">Alice</tspan></text></g><g><rect x="200" y="404" fill="#eaeaea" stroke="#666" width="150" height="65" rx="3" ry="3" class="actor"></rect><text x="275" y="436.5" dominant-baseline="central" alignment-baseline="central" class="actor" style="text-anchor: middle;"><tspan x="275" dy="0">Bob</tspan></text></g><g><rect x="400" y="404" fill="#eaeaea" stroke="#666" width="150" height="65" rx="3" ry="3" class="actor"></rect><text x="475" y="436.5" dominant-baseline="central" alignment-baseline="central" class="actor" style="text-anchor: middle;"><tspan x="475" dy="0">John</tspan></text></g></svg>